<svg width="1440" height="643" viewBox="0 0 1440 643" fill="none" xmlns="http://www.w3.org/2000/svg">
<path fill-rule="evenodd" clip-rule="evenodd" d="M1440 98.9988L1359.6 129.221C1280.4 159.443 1128.21 251.857 968.613 302.227C809.013 352.598 653.359 349.332 493.759 339.258C334.159 329.184 159.6 280.332 80.4 250.11L1.72853e-05 219.888V642.999H80.4C159.6 642.999 320.4 642.999 480 642.999C639.6 642.999 800.4 642.999 960 642.999C1119.6 642.999 1280.4 642.999 1359.6 642.999H1440V98.9988Z" fill="#783293"/>
<path fill-rule="evenodd" clip-rule="evenodd" d="M1011.45 379.321C1003.15 373.966 999.045 363.604 1002.17 353.834L1011.45 379.321Z" fill="#FED6B7"/>
<path fill-rule="evenodd" clip-rule="evenodd" d="M975.479 280.496L990.237 321.042L982.838 318.46C971.301 314.432 964.932 301.914 968.816 290.309C970.143 286.38 972.511 283.045 975.479 280.496Z" fill="#FED6B7"/>
<path fill-rule="evenodd" clip-rule="evenodd" d="M908.368 211.286C912.959 197.683 927.914 190.116 941.493 194.808L944.983 196.012L967.958 259.137L924.801 244.225C911.234 239.564 903.776 224.89 908.368 211.286Z" fill="#FFE5E2"/>
<path fill-rule="evenodd" clip-rule="evenodd" d="M1026.69 295.442L1017.59 292.55C1005.95 300.713 1002.94 311.669 1007.15 324.928L1015.79 327.85C1039.32 335.756 1046.22 301.354 1026.69 295.442Z" fill="#FFF3E9"/>
<path fill-rule="evenodd" clip-rule="evenodd" d="M945.983 69.796L1062.41 27.4207C1084.96 19.2134 1110.12 30.9463 1118.33 53.4955L1230.82 362.582C1239.03 385.131 1227.3 410.292 1204.75 418.5L1088.32 460.875C1065.77 469.082 1040.61 457.349 1032.41 434.8L919.908 125.714C911.701 103.164 923.434 78.0032 945.983 69.796ZM1050.27 429.572C1050.39 429.889 1050.74 430.045 1051.05 429.934L1213.42 370.836C1213.73 370.72 1213.89 370.364 1213.78 370.06L1096.92 48.9973C1096.81 48.6797 1096.45 48.5246 1096.15 48.6354L933.788 107.729C933.471 107.844 933.316 108.2 933.426 108.505L1050.28 429.567L1050.27 429.572Z" fill="#4A556D"/>
<path fill-rule="evenodd" clip-rule="evenodd" d="M1037.8 47.3338L977.638 69.2294C976.01 69.8219 975.16 71.6449 975.752 73.2725C976.345 74.9002 978.168 75.7503 979.795 75.1579L1039.95 53.2622C1041.58 52.6698 1042.43 50.8468 1041.84 49.2191C1041.25 47.5914 1039.42 46.7413 1037.8 47.3338Z" fill="#808285"/>
<path fill-rule="evenodd" clip-rule="evenodd" d="M1136.12 411.064C1130.59 413.077 1127.73 419.196 1129.75 424.727C1131.76 430.259 1137.88 433.112 1143.41 431.099C1148.96 429.081 1151.8 422.967 1149.78 417.435C1147.77 411.904 1141.66 409.046 1136.12 411.064Z" fill="#808285"/>
<path fill-rule="evenodd" clip-rule="evenodd" d="M1096.36 49.6494L934.007 108.743C933.689 108.858 933.534 109.214 933.645 109.519L1050.5 430.581C1050.62 430.899 1050.97 431.054 1051.28 430.943L1213.64 371.85C1213.95 371.734 1214.11 371.378 1214 371.074L1097.14 50.0113C1097.04 49.6889 1096.68 49.5338 1096.36 49.6494Z" fill="white"/>
<path fill-rule="evenodd" clip-rule="evenodd" d="M1236.25 329.329L1223.75 338.826L1213.37 322.314L1129.88 189.83C1112.53 162.278 1127.44 145.401 1143.8 132.988L1242.34 289.381C1250.61 302.51 1247.89 320.507 1236.25 329.329Z" fill="#FFE5E2"/>
<path fill-rule="evenodd" clip-rule="evenodd" d="M1000.88 355.13C996.993 366.734 1003.33 379.369 1014.89 383.267L1054.22 396.542C1065.79 400.44 1078.49 394.124 1082.36 382.524C1086.25 370.92 1079.93 358.294 1068.34 354.387L1029.01 341.112C1017.43 337.206 1004.76 343.526 1000.88 355.13Z" fill="#FFE5E2"/>
<path fill-rule="evenodd" clip-rule="evenodd" d="M961.113 291.412C956.943 303.892 963.758 317.484 976.194 321.695L1012.2 333.851C1024.64 338.063 1038.28 331.259 1042.44 318.784C1046.61 306.304 1039.81 292.721 1027.36 288.515L991.35 276.344C978.9 272.138 965.284 278.932 961.113 291.412Z" fill="#FFE5E2"/>
<path fill-rule="evenodd" clip-rule="evenodd" d="M1204.36 417.616C1226.38 409.603 1237.46 384.035 1229.01 360.794L1186.83 244.929L1200.49 234.212L1342.19 426.795L1247.31 501.196L1208.19 448.027L1165.4 431.811L1204.37 417.629L1204.36 417.616Z" fill="#FFE5E2"/>
<path d="M1102.53 223.608C1101.82 221.67 1101.13 219.728 1100.4 217.799C1100.18 217.241 1100.22 216.97 1100.86 216.751C1104.75 215.377 1108.61 213.971 1112.47 212.524C1113.05 212.315 1113.26 212.442 1113.46 212.993C1114.85 216.901 1116.27 220.8 1117.72 224.691C1117.92 225.241 1117.85 225.48 1117.28 225.689C1113.4 227.076 1109.53 228.47 1105.67 229.917C1105.02 230.152 1104.83 229.964 1104.63 229.413C1103.96 227.463 1103.23 225.534 1102.53 223.608Z" fill="#783293"/>
<path d="M1044.1 252.296C1042.22 252.98 1040.33 253.644 1038.46 254.363C1037.86 254.597 1037.58 254.536 1037.33 253.867C1035.95 250.006 1034.56 246.167 1033.13 242.324C1032.94 241.786 1032.91 241.484 1033.58 241.241C1037.44 239.875 1041.28 238.465 1045.12 237.039C1045.71 236.826 1045.95 236.9 1046.17 237.51C1047.56 241.394 1048.97 245.27 1050.4 249.136C1050.62 249.723 1050.54 249.966 1049.93 250.176C1047.97 250.862 1046.04 251.591 1044.1 252.296Z" fill="#783293"/>
<path d="M1068.5 214.712C1066.59 215.409 1064.68 216.077 1062.78 216.81C1062.17 217.044 1061.93 216.901 1061.73 216.311C1060.35 212.462 1058.95 208.611 1057.53 204.78C1057.31 204.182 1057.42 203.953 1058.02 203.736C1061.9 202.349 1065.78 200.939 1069.63 199.508C1070.22 199.295 1070.47 199.381 1070.67 199.983C1072.05 203.832 1073.45 207.683 1074.87 211.514C1075.08 212.1 1075.02 212.368 1074.39 212.582C1072.42 213.26 1070.46 213.998 1068.5 214.712Z" fill="#783293"/>
<path d="M1086.96 265.32C1085.02 266.025 1083.08 266.719 1081.15 267.448C1080.62 267.656 1080.37 267.61 1080.17 267.02C1078.78 263.136 1077.38 259.272 1075.94 255.405C1075.72 254.795 1075.85 254.57 1076.44 254.357C1080.33 252.97 1084.19 251.564 1088.06 250.129C1088.65 249.912 1088.89 250.014 1089.11 250.612C1090.49 254.46 1091.89 258.312 1093.32 262.138C1093.58 262.816 1093.37 263.015 1092.77 263.221C1090.82 263.89 1088.9 264.615 1086.96 265.32Z" fill="#783293"/>
<path d="M1044 225.714C1043.4 224.039 1042.81 222.344 1042.16 220.671C1041.92 220.065 1042.07 219.835 1042.67 219.618C1046.04 218.418 1049.4 217.195 1052.75 215.948C1053.3 215.747 1053.53 215.826 1053.74 216.4C1054.95 219.793 1056.19 223.191 1057.44 226.567C1057.65 227.141 1057.54 227.357 1056.98 227.562C1053.61 228.762 1050.24 229.973 1046.89 231.232C1046.22 231.492 1046.01 231.285 1045.79 230.67C1045.22 229.023 1044.61 227.377 1044 225.714Z" fill="#783293"/>
<path d="M1060.07 251.687C1061.72 251.087 1063.38 250.51 1065.03 249.869C1065.57 249.656 1065.85 249.649 1066.09 250.307C1067.29 253.717 1068.54 257.097 1069.79 260.49C1069.97 261.004 1069.92 261.227 1069.38 261.423C1065.95 262.645 1062.53 263.89 1059.12 265.159C1058.56 265.363 1058.39 265.207 1058.21 264.704C1056.98 261.303 1055.75 257.918 1054.5 254.525C1054.3 253.975 1054.34 253.732 1054.94 253.539C1056.66 252.956 1058.36 252.31 1060.07 251.687Z" fill="#783293"/>
<path d="M1103.1 249.122C1101.45 249.723 1099.79 250.3 1098.14 250.941C1097.59 251.157 1097.32 251.161 1097.09 250.498C1095.89 247.1 1094.65 243.708 1093.38 240.319C1093.2 239.805 1093.25 239.582 1093.79 239.386C1097.22 238.165 1100.64 236.92 1104.05 235.651C1104.6 235.45 1104.78 235.591 1104.96 236.105C1106.18 239.511 1107.41 242.896 1108.68 246.28C1108.93 246.933 1108.71 247.109 1108.16 247.297C1106.46 247.887 1104.78 248.525 1103.1 249.122Z" fill="#783293"/>
<path d="M1086.62 203.727C1088.33 203.105 1090.05 202.494 1091.75 201.848C1092.22 201.662 1092.43 201.737 1092.61 202.227C1093.83 205.657 1095.07 209.078 1096.34 212.49C1096.53 213.004 1096.38 213.153 1095.91 213.323C1092.51 214.548 1089.12 215.768 1085.74 217.04C1085.14 217.258 1084.95 217.082 1084.76 216.555C1083.56 213.214 1082.36 209.872 1081.12 206.556C1080.89 205.91 1081.09 205.727 1081.66 205.534C1083.31 204.945 1084.96 204.333 1086.62 203.727Z" fill="#783293"/>
<path d="M1082.79 197.957C1081.65 198.371 1080.51 198.76 1079.38 199.21C1078.91 199.396 1078.71 199.281 1078.53 198.802C1077.74 196.545 1076.92 194.296 1076.08 192.068C1075.88 191.558 1076.04 191.393 1076.5 191.223C1078.79 190.419 1081.06 189.592 1083.33 188.737C1083.81 188.563 1084.02 188.65 1084.2 189.14C1084.99 191.397 1085.81 193.646 1086.65 195.886C1086.84 196.401 1086.69 196.578 1086.23 196.743C1085.05 197.106 1083.92 197.543 1082.79 197.957Z" fill="#783293"/>
<path d="M1070.89 276.966C1069.78 277.371 1068.66 277.751 1067.57 278.188C1067.07 278.383 1066.84 278.333 1066.64 277.783C1065.87 275.557 1065.05 273.336 1064.22 271.132C1064.04 270.63 1064.08 270.383 1064.64 270.194C1066.92 269.391 1069.19 268.564 1071.47 267.709C1071.94 267.534 1072.15 267.609 1072.33 268.112C1073.13 270.369 1073.94 272.618 1074.79 274.858C1074.96 275.336 1074.91 275.543 1074.41 275.714C1073.22 276.093 1072.05 276.543 1070.89 276.966Z" fill="#783293"/>
<path d="M1094.28 196.862C1093.95 195.953 1093.65 195.035 1093.28 194.139C1093.1 193.677 1093.14 193.446 1093.65 193.259C1095.56 192.591 1097.47 191.882 1099.37 191.178C1099.81 191.017 1100.03 191.128 1100.18 191.575C1100.86 193.481 1101.55 195.395 1102.26 197.292C1102.43 197.759 1102.29 197.944 1101.86 198.088C1099.95 198.769 1098.03 199.453 1096.14 200.181C1095.64 200.376 1095.49 200.147 1095.37 199.76C1095.03 198.786 1094.66 197.822 1094.31 196.865L1094.28 196.862Z" fill="#783293"/>
<path d="M1051.85 267.806C1052.76 267.475 1053.67 267.168 1054.57 266.801C1055.05 266.61 1055.29 266.632 1055.51 267.19C1056.22 269.043 1056.68 270.992 1057.54 272.792C1057.78 273.325 1057.6 273.527 1057.1 273.71C1055.25 274.357 1053.39 275.032 1051.56 275.726C1051.05 275.925 1050.81 275.823 1050.63 275.292C1049.98 273.442 1049.31 271.588 1048.61 269.754C1048.4 269.237 1048.5 268.996 1049.02 268.833C1049.98 268.513 1050.9 268.149 1051.85 267.806Z" fill="#783293"/>
<path d="M1070 191.288C1070.26 191.994 1070.49 192.72 1070.79 193.413C1070.95 193.839 1070.91 194.045 1070.43 194.22C1068.97 194.723 1067.51 195.254 1066.08 195.804C1065.63 195.982 1065.37 195.94 1065.19 195.422C1064.69 193.966 1064.16 192.506 1063.61 191.068C1063.42 190.582 1063.56 190.381 1064.03 190.223C1065.49 189.72 1066.95 189.189 1068.38 188.638C1068.82 188.465 1069.04 188.536 1069.18 188.999C1069.42 189.777 1069.72 190.534 1070.01 191.312L1070 191.288Z" fill="#783293"/>
<path d="M1080.84 275.663C1080.57 274.921 1080.32 274.171 1080.02 273.454C1079.86 273.04 1079.95 272.884 1080.37 272.732C1081.86 272.216 1083.33 271.68 1084.8 271.117C1085.3 270.922 1085.49 271.07 1085.67 271.548C1086.16 272.98 1086.68 274.404 1087.22 275.806C1087.41 276.304 1087.35 276.556 1086.81 276.74C1085.35 277.231 1083.9 277.757 1082.47 278.32C1082.03 278.493 1081.83 278.43 1081.69 277.967C1081.42 277.185 1081.12 276.428 1080.84 275.663Z" fill="#783293"/>
<path d="M1053.43 211.476C1051.59 212.142 1051.59 212.142 1050.93 210.324C1050.27 208.506 1050.27 208.506 1052.11 207.835C1053.9 207.186 1053.9 207.186 1054.54 208.969L1054.57 209.052C1055.22 210.823 1055.22 210.823 1053.43 211.476Z" fill="#783293"/>
<path d="M1097.47 255.441C1099.25 254.792 1099.25 254.792 1099.89 256.563C1100.57 258.429 1100.57 258.429 1098.72 259.104C1096.95 259.748 1096.95 259.748 1096.3 257.978C1095.62 256.112 1095.63 256.112 1097.47 255.441Z" fill="#783293"/>
<path d="M1110.76 236.365C1110.11 234.571 1110.11 234.571 1111.91 233.914C1113.72 233.256 1113.71 233.261 1114.37 235.067C1115.04 236.921 1115.04 236.921 1113.27 237.553C1111.44 238.219 1111.44 238.219 1110.76 236.365Z" fill="#783293"/>
<path d="M1037.67 229.346C1039.41 228.715 1039.41 228.715 1040.03 230.438C1040.73 232.363 1040.73 232.363 1038.79 233.073C1037.13 233.674 1037.13 233.674 1036.54 232.047L1036.48 231.88C1035.81 230.026 1035.81 230.026 1037.67 229.346Z" fill="#783293"/>
<path d="M1070.86 220.084C1063.6 222.686 1059.82 230.698 1062.43 237.96C1065.03 245.222 1073.04 248.997 1080.3 246.395C1087.56 243.792 1091.34 235.781 1088.74 228.519C1088.73 228.495 1088.72 228.471 1088.71 228.447C1086.06 221.231 1078.09 217.507 1070.86 220.084ZM1078.88 229.521C1076.93 230.243 1074.78 229.239 1074.05 227.293C1074.04 227.257 1074.03 227.234 1074.02 227.198C1073.25 225.241 1074.22 223.032 1076.18 222.266C1076.22 222.253 1076.25 222.24 1076.3 222.223C1078.32 221.515 1080.53 222.566 1081.24 224.584C1081.94 226.603 1080.88 228.806 1078.88 229.521Z" fill="#783293"/>
<path fill-rule="evenodd" clip-rule="evenodd" d="M1370.43 400.998L1210.36 485.264L1271.16 637.575L1430.71 581.979L1370.43 400.998Z" fill="white"/>
</svg>
