<svg width="1440" height="637" viewBox="0 0 1440 637" fill="none" xmlns="http://www.w3.org/2000/svg">
<path fill-rule="evenodd" clip-rule="evenodd" d="M1440 93L1359.6 123.222C1280.4 153.444 1128.21 245.858 968.613 296.229C809.013 346.599 653.359 343.333 493.759 333.259C334.159 323.185 159.6 274.333 80.4 244.111L1.72853e-05 213.889V637H80.4C159.6 637 320.4 637 480 637C639.6 637 800.4 637 960 637C1119.6 637 1280.4 637 1359.6 637H1440V93Z" fill="#783293"/>
<path fill-rule="evenodd" clip-rule="evenodd" d="M1014.22 363.514C1006.26 358.382 1002.33 348.452 1005.33 339.089L1014.22 363.514Z" fill="#FED6B7"/>
<path fill-rule="evenodd" clip-rule="evenodd" d="M979.751 268.807L993.894 307.663L986.803 305.189C975.747 301.328 969.643 289.332 973.365 278.211C974.637 274.445 976.906 271.25 979.751 268.807Z" fill="#FED6B7"/>
<path fill-rule="evenodd" clip-rule="evenodd" d="M915.436 202.482C919.836 189.445 934.168 182.194 947.18 186.69L950.525 187.844L972.543 248.338L931.184 234.047C918.183 229.581 911.036 215.518 915.436 202.482Z" fill="#FFE5E2"/>
<path fill-rule="evenodd" clip-rule="evenodd" d="M1028.82 283.13L1020.1 280.358C1008.95 288.181 1006.06 298.681 1010.1 311.387L1018.39 314.188C1040.93 321.764 1047.55 288.796 1028.82 283.13Z" fill="#FFF3E9"/>
<path fill-rule="evenodd" clip-rule="evenodd" d="M951.484 66.8877L1063.06 26.2783C1084.67 18.4131 1108.78 29.657 1116.64 51.2665L1224.45 347.472C1232.32 369.082 1221.08 393.194 1199.47 401.059L1087.89 441.669C1066.28 449.534 1042.17 438.29 1034.31 416.68L926.496 120.475C918.63 98.8655 929.874 74.7529 951.484 66.8877ZM1051.42 411.67C1051.54 411.975 1051.88 412.123 1052.17 412.017L1207.77 355.382C1208.08 355.271 1208.23 354.93 1208.12 354.638L1096.13 46.9557C1096.02 46.6514 1095.68 46.5027 1095.39 46.6089L939.797 103.239C939.493 103.35 939.344 103.692 939.45 103.983L1051.44 411.666L1051.42 411.67Z" fill="#4A556D"/>
<path fill-rule="evenodd" clip-rule="evenodd" d="M1039.47 45.3616L981.819 66.3447C980.259 66.9125 979.445 68.6595 980.012 70.2194C980.58 71.7792 982.327 72.5939 983.887 72.0261L1041.54 51.0429C1043.1 50.4752 1043.91 48.7282 1043.34 47.1683C1042.78 45.6085 1041.03 44.7938 1039.47 45.3616Z" fill="#808285"/>
<path fill-rule="evenodd" clip-rule="evenodd" d="M1133.7 393.934C1128.39 395.863 1125.66 401.727 1127.59 407.028C1129.52 412.329 1135.38 415.063 1140.68 413.134C1146 411.2 1148.72 405.34 1146.79 400.039C1144.86 394.739 1139.01 392 1133.7 393.934Z" fill="#808285"/>
<path fill-rule="evenodd" clip-rule="evenodd" d="M1095.6 47.5807L940.007 104.211C939.702 104.322 939.554 104.663 939.66 104.955L1051.65 412.637C1051.76 412.942 1052.1 413.09 1052.39 412.984L1207.98 356.354C1208.29 356.243 1208.43 355.902 1208.33 355.61L1096.34 47.9276C1096.24 47.6186 1095.9 47.4699 1095.6 47.5807Z" fill="white"/>
<path fill-rule="evenodd" clip-rule="evenodd" d="M1229.66 315.605L1217.68 324.706L1207.72 308.883L1127.72 181.919C1111.09 155.516 1125.38 139.342 1141.05 127.446L1235.49 277.321C1243.41 289.904 1240.81 307.15 1229.66 315.605Z" fill="#FFE5E2"/>
<path fill-rule="evenodd" clip-rule="evenodd" d="M1004.09 340.331C1000.37 351.451 1006.44 363.56 1017.52 367.295L1055.21 380.017C1066.3 383.753 1078.47 377.699 1082.18 366.583C1085.9 355.463 1079.84 343.363 1068.74 339.619L1031.05 326.897C1019.95 323.153 1007.81 329.21 1004.09 340.331Z" fill="#FFE5E2"/>
<path fill-rule="evenodd" clip-rule="evenodd" d="M965.983 279.268C961.987 291.228 968.518 304.254 980.435 308.289L1014.94 319.939C1026.86 323.975 1039.93 317.454 1043.92 305.499C1047.91 293.539 1041.4 280.522 1029.47 276.491L994.96 264.828C983.029 260.797 969.98 267.308 965.983 279.268Z" fill="#FFE5E2"/>
<path fill-rule="evenodd" clip-rule="evenodd" d="M1204.36 411.618C1226.38 403.605 1237.46 378.037 1229.01 354.796L1186.83 238.93L1200.49 228.214L1342.19 420.797L1247.31 495.197L1208.19 442.028L1165.4 425.813L1204.37 411.631L1204.36 411.618Z" fill="#FFE5E2"/>
<path d="M1097.53 191.608C1096.82 189.67 1096.13 187.728 1095.4 185.799C1095.18 185.241 1095.22 184.97 1095.86 184.751C1099.75 183.377 1103.61 181.971 1107.47 180.524C1108.05 180.315 1108.26 180.442 1108.46 180.993C1109.85 184.901 1111.27 188.8 1112.72 192.691C1112.92 193.241 1112.85 193.48 1112.28 193.689C1108.4 195.076 1104.53 196.47 1100.67 197.917C1100.02 198.152 1099.83 197.964 1099.63 197.413C1098.96 195.463 1098.23 193.534 1097.53 191.608Z" fill="#783293"/>
<path d="M1039.1 220.296C1037.22 220.98 1035.33 221.644 1033.46 222.363C1032.86 222.597 1032.58 222.536 1032.33 221.867C1030.95 218.006 1029.56 214.167 1028.13 210.324C1027.94 209.786 1027.91 209.484 1028.58 209.241C1032.44 207.875 1036.28 206.465 1040.12 205.039C1040.71 204.826 1040.95 204.9 1041.17 205.51C1042.56 209.394 1043.97 213.27 1045.4 217.136C1045.62 217.723 1045.54 217.966 1044.93 218.176C1042.97 218.862 1041.04 219.591 1039.1 220.296Z" fill="#783293"/>
<path d="M1063.5 182.712C1061.59 183.409 1059.68 184.077 1057.78 184.81C1057.17 185.044 1056.93 184.901 1056.73 184.311C1055.35 180.462 1053.95 176.611 1052.53 172.78C1052.31 172.182 1052.42 171.953 1053.02 171.736C1056.9 170.349 1060.78 168.939 1064.63 167.508C1065.22 167.295 1065.47 167.381 1065.67 167.983C1067.05 171.832 1068.45 175.683 1069.87 179.514C1070.08 180.1 1070.02 180.368 1069.39 180.582C1067.42 181.26 1065.46 181.998 1063.5 182.712Z" fill="#783293"/>
<path d="M1081.96 233.32C1080.02 234.025 1078.08 234.719 1076.15 235.448C1075.62 235.656 1075.37 235.61 1075.17 235.02C1073.78 231.136 1072.38 227.272 1070.94 223.405C1070.72 222.795 1070.85 222.57 1071.44 222.357C1075.33 220.97 1079.19 219.564 1083.06 218.129C1083.65 217.912 1083.89 218.014 1084.11 218.612C1085.49 222.46 1086.89 226.312 1088.32 230.138C1088.58 230.816 1088.37 231.015 1087.77 231.221C1085.82 231.89 1083.9 232.615 1081.96 233.32Z" fill="#783293"/>
<path d="M1039 193.714C1038.4 192.039 1037.81 190.344 1037.16 188.671C1036.92 188.065 1037.07 187.835 1037.67 187.618C1041.04 186.418 1044.4 185.195 1047.75 183.948C1048.3 183.747 1048.53 183.826 1048.74 184.4C1049.95 187.793 1051.19 191.191 1052.44 194.567C1052.65 195.141 1052.54 195.357 1051.98 195.562C1048.61 196.762 1045.24 197.973 1041.89 199.232C1041.22 199.492 1041.01 199.285 1040.79 198.67C1040.22 197.023 1039.61 195.377 1039 193.714Z" fill="#783293"/>
<path d="M1055.07 219.687C1056.72 219.087 1058.38 218.51 1060.03 217.869C1060.57 217.656 1060.85 217.649 1061.09 218.307C1062.29 221.717 1063.54 225.097 1064.79 228.49C1064.97 229.004 1064.92 229.227 1064.38 229.423C1060.95 230.645 1057.53 231.89 1054.12 233.159C1053.56 233.363 1053.39 233.207 1053.21 232.704C1051.98 229.303 1050.75 225.918 1049.5 222.525C1049.3 221.975 1049.34 221.732 1049.94 221.539C1051.66 220.956 1053.36 220.31 1055.07 219.687Z" fill="#783293"/>
<path d="M1098.1 217.122C1096.45 217.723 1094.79 218.3 1093.14 218.941C1092.59 219.157 1092.32 219.161 1092.09 218.498C1090.89 215.1 1089.65 211.708 1088.38 208.319C1088.2 207.805 1088.25 207.582 1088.79 207.386C1092.22 206.165 1095.64 204.92 1099.05 203.651C1099.6 203.45 1099.78 203.591 1099.96 204.105C1101.18 207.511 1102.41 210.896 1103.68 214.28C1103.93 214.933 1103.71 215.109 1103.16 215.297C1101.46 215.887 1099.78 216.525 1098.1 217.122Z" fill="#783293"/>
<path d="M1081.62 171.727C1083.33 171.105 1085.05 170.494 1086.75 169.848C1087.22 169.662 1087.43 169.737 1087.61 170.227C1088.83 173.657 1090.07 177.078 1091.34 180.49C1091.53 181.004 1091.38 181.153 1090.91 181.323C1087.51 182.548 1084.12 183.768 1080.74 185.04C1080.14 185.258 1079.95 185.082 1079.76 184.555C1078.56 181.214 1077.36 177.872 1076.12 174.556C1075.89 173.91 1076.09 173.727 1076.66 173.534C1078.31 172.945 1079.96 172.333 1081.62 171.727Z" fill="#783293"/>
<path d="M1077.79 165.957C1076.65 166.371 1075.51 166.76 1074.38 167.21C1073.91 167.396 1073.71 167.281 1073.53 166.802C1072.74 164.545 1071.92 162.296 1071.08 160.068C1070.88 159.558 1071.04 159.393 1071.5 159.223C1073.79 158.419 1076.06 157.592 1078.33 156.737C1078.81 156.563 1079.02 156.65 1079.2 157.14C1079.99 159.397 1080.81 161.646 1081.65 163.886C1081.84 164.401 1081.69 164.578 1081.23 164.743C1080.05 165.106 1078.92 165.543 1077.79 165.957Z" fill="#783293"/>
<path d="M1065.89 244.966C1064.78 245.371 1063.66 245.751 1062.57 246.188C1062.07 246.383 1061.84 246.333 1061.64 245.783C1060.87 243.557 1060.05 241.336 1059.22 239.132C1059.04 238.63 1059.08 238.383 1059.64 238.194C1061.92 237.391 1064.19 236.564 1066.47 235.709C1066.94 235.534 1067.15 235.609 1067.33 236.112C1068.13 238.369 1068.94 240.618 1069.79 242.858C1069.96 243.336 1069.91 243.543 1069.41 243.714C1068.22 244.093 1067.05 244.543 1065.89 244.966Z" fill="#783293"/>
<path d="M1089.28 164.862C1088.95 163.953 1088.65 163.035 1088.28 162.139C1088.1 161.677 1088.14 161.446 1088.65 161.259C1090.56 160.591 1092.47 159.882 1094.37 159.178C1094.81 159.017 1095.03 159.128 1095.18 159.575C1095.86 161.481 1096.55 163.395 1097.26 165.292C1097.43 165.759 1097.29 165.944 1096.86 166.088C1094.95 166.769 1093.03 167.453 1091.14 168.181C1090.64 168.376 1090.49 168.147 1090.37 167.76C1090.03 166.786 1089.66 165.822 1089.31 164.865L1089.28 164.862Z" fill="#783293"/>
<path d="M1046.85 235.806C1047.76 235.475 1048.67 235.168 1049.57 234.801C1050.05 234.61 1050.29 234.632 1050.51 235.19C1051.22 237.043 1051.68 238.992 1052.54 240.792C1052.78 241.325 1052.6 241.527 1052.1 241.71C1050.25 242.357 1048.39 243.032 1046.56 243.726C1046.05 243.925 1045.81 243.823 1045.63 243.292C1044.98 241.442 1044.31 239.588 1043.61 237.754C1043.4 237.237 1043.5 236.996 1044.02 236.833C1044.98 236.513 1045.9 236.149 1046.85 235.806Z" fill="#783293"/>
<path d="M1065 159.288C1065.26 159.994 1065.49 160.72 1065.79 161.413C1065.95 161.839 1065.91 162.045 1065.43 162.22C1063.97 162.723 1062.51 163.254 1061.08 163.804C1060.63 163.982 1060.37 163.94 1060.19 163.422C1059.69 161.966 1059.16 160.506 1058.61 159.068C1058.42 158.582 1058.56 158.381 1059.03 158.223C1060.49 157.72 1061.95 157.189 1063.38 156.638C1063.82 156.465 1064.04 156.536 1064.18 156.999C1064.42 157.777 1064.72 158.534 1065.01 159.312L1065 159.288Z" fill="#783293"/>
<path d="M1075.84 243.663C1075.57 242.921 1075.32 242.171 1075.02 241.454C1074.86 241.04 1074.95 240.884 1075.37 240.732C1076.86 240.216 1078.33 239.68 1079.8 239.117C1080.3 238.922 1080.49 239.07 1080.67 239.548C1081.16 240.98 1081.68 242.404 1082.22 243.806C1082.41 244.304 1082.35 244.556 1081.81 244.74C1080.35 245.231 1078.9 245.757 1077.47 246.32C1077.03 246.493 1076.83 246.43 1076.69 245.967C1076.42 245.185 1076.12 244.428 1075.84 243.663Z" fill="#783293"/>
<path d="M1048.43 179.476C1046.59 180.142 1046.59 180.142 1045.93 178.324C1045.27 176.506 1045.27 176.506 1047.11 175.835C1048.9 175.186 1048.9 175.186 1049.54 176.969L1049.57 177.052C1050.22 178.823 1050.22 178.823 1048.43 179.476Z" fill="#783293"/>
<path d="M1092.47 223.441C1094.25 222.792 1094.25 222.792 1094.89 224.563C1095.57 226.429 1095.57 226.429 1093.72 227.104C1091.95 227.748 1091.95 227.748 1091.3 225.978C1090.62 224.112 1090.63 224.112 1092.47 223.441Z" fill="#783293"/>
<path d="M1105.76 204.365C1105.11 202.571 1105.11 202.571 1106.91 201.914C1108.72 201.256 1108.71 201.261 1109.37 203.067C1110.04 204.921 1110.04 204.921 1108.27 205.553C1106.44 206.219 1106.44 206.219 1105.76 204.365Z" fill="#783293"/>
<path d="M1032.67 197.346C1034.41 196.715 1034.41 196.715 1035.03 198.438C1035.73 200.363 1035.73 200.363 1033.79 201.073C1032.13 201.674 1032.13 201.674 1031.54 200.047L1031.48 199.88C1030.81 198.026 1030.81 198.026 1032.67 197.346Z" fill="#783293"/>
<path d="M1065.86 188.084C1058.6 190.686 1054.82 198.698 1057.43 205.96C1060.03 213.222 1068.04 216.997 1075.3 214.395C1082.56 211.792 1086.34 203.781 1083.74 196.519C1083.73 196.495 1083.72 196.471 1083.71 196.447C1081.06 189.231 1073.09 185.507 1065.86 188.084ZM1073.88 197.521C1071.93 198.243 1069.78 197.239 1069.05 195.293C1069.04 195.257 1069.03 195.234 1069.02 195.198C1068.25 193.241 1069.22 191.032 1071.18 190.266C1071.22 190.253 1071.25 190.24 1071.3 190.223C1073.32 189.515 1075.53 190.566 1076.24 192.584C1076.94 194.603 1075.88 196.806 1073.88 197.521Z" fill="#783293"/>
<path fill-rule="evenodd" clip-rule="evenodd" d="M1366.43 395L1205.93 478.088L1263.85 622.5L1423.36 566.792L1366.43 395Z" fill="white"/>
</svg>
