<svg width="36" height="37" viewBox="0 0 36 37" fill="none" xmlns="http://www.w3.org/2000/svg">
<path d="M32.1429 0.63501H3.85714C2.83417 0.63501 1.85309 1.04139 1.12973 1.76474C0.406376 2.4881 0 3.46917 0 4.49215L0 32.7779C0 33.8008 0.406376 34.7819 1.12973 35.5053C1.85309 36.2286 2.83417 36.635 3.85714 36.635H14.8862V24.3958H9.82366V18.635H14.8862V14.2443C14.8862 9.2501 17.8594 6.49144 22.4132 6.49144C24.5941 6.49144 26.8746 6.88037 26.8746 6.88037V11.7822H24.3619C21.8861 11.7822 21.1138 13.3186 21.1138 14.8944V18.635H26.6408L25.7569 24.3958H21.1138V36.635H32.1429C33.1658 36.635 34.1469 36.2286 34.8703 35.5053C35.5936 34.7819 36 33.8008 36 32.7779V4.49215C36 3.46917 35.5936 2.4881 34.8703 1.76474C34.1469 1.04139 33.1658 0.63501 32.1429 0.63501V0.63501Z" fill="#F89420"/>
</svg>
