<svg width="1049" height="887" viewBox="0 0 1049 887" fill="none" xmlns="http://www.w3.org/2000/svg">
<path opacity="0.37" d="M795.521 127.466V143.733H727.497V48.2672H699.605H685.519H669.609H627.631H598.849V91.4328H594.226H552.552H495.727H450.949V146.925H445.241H440.466V48.2672H412.574H398.488H382.578H340.6H311.818V91.4328H307.195H265.521H255.059V74.9898V46H222.045H211.822H180.067H136.809H102.709V143.711H13.5007V127.444H0V826.877H13.5007V795.774H176.334V826.877H189.835V693.198H619.187V826.877H632.688V795.774H795.521V826.877H809.022V127.466H795.521ZM795.521 659.827H762.789V599.602H734.898H726.259H700.17V584.37V517.806H660.492H640.458H632.688V487.781H795.521V659.827V659.827ZM423.644 535.856V560.003H398.618H389.979H363.195H326.665H317.418V504.51H274.029H260.594H218.92H189.835V487.781H619.187V517.806H617.82H558.108H517.172V535.834H511.529H459.393H423.644V535.856ZM619.187 280.12V332.993H600.087H555.656H520.645V354.587H513.157H504.518H477.734H441.204H431.957V299.094H388.568H375.133H333.459H276.634H243.056V290.113H209.109H199.58H198.604H189.835V280.12H619.187V280.12ZM643.172 332.993H632.666V280.12H795.499V454.411H677.097V332.993H643.172V332.993ZM176.334 280.12V290.113H166.024H121.593H86.5825V454.411H13.5007V280.12H176.334V280.12ZM176.334 487.781V504.51H162.073H117.295V659.805H13.5007V487.781H176.334ZM760.163 246.728V162.708H795.521V246.75H760.163V246.728ZM54.6757 162.708V246.75H13.5007V162.708H54.6757ZM176.334 776.799H13.5007V693.176H176.334V776.799ZM632.666 776.799V693.176H795.499V776.799H632.666Z" fill="#4B256E"/>
<g opacity="0.59">
<g opacity="0.59">
<path opacity="0.59" d="M632.688 127.467H619.187V826.899H632.688V127.467Z" fill="#4D2C69"/>
<path opacity="0.59" d="M809.022 127.467H795.521V826.899H809.022V127.467Z" fill="#4D2C69"/>
<path opacity="0.59" d="M802.25 143.711H625.916V162.686H802.25V143.711Z" fill="#4D2C69"/>
<path opacity="0.59" d="M802.25 460.266H625.916V479.241H802.25V460.266Z" fill="#4D2C69"/>
<path opacity="0.59" d="M802.25 776.799H625.916V795.774H802.25V776.799Z" fill="#4D2C69"/>
</g>
<g opacity="0.59">
<path opacity="0.59" d="M660.471 517.806H517.172V659.805H660.471V517.806Z" fill="#591C57"/>
<path opacity="0.59" d="M700.148 517.806H558.109V659.805H700.148V517.806Z" fill="#815088"/>
<path opacity="0.59" d="M640.437 517.806H617.82V554.346H640.437V517.806Z" fill="#9B77A1"/>
<path opacity="0.59" d="M640.437 623.287H617.82V659.827H640.437V623.287Z" fill="#9B77A1"/>
<g opacity="0.59">
<path opacity="0.59" d="M690.12 630.705H653.265V653.29H690.12V630.705Z" fill="#E6E1E6"/>
<g opacity="0.59">
<path opacity="0.59" d="M658.843 633.875H654.936V650.12H658.843V633.875Z" fill="#BA8DB3"/>
<path opacity="0.59" d="M662.598 633.875H661.231V650.12H662.598V633.875Z" fill="#BA8DB3"/>
<path opacity="0.59" d="M671.432 633.875H668.219V650.12H671.432V633.875Z" fill="#BA8DB3"/>
<path opacity="0.59" d="M666.136 633.875H664.183V650.12H666.136V633.875Z" fill="#BA8DB3"/>
<path opacity="0.59" d="M675.143 633.875H673.82V650.12H675.143V633.875Z" fill="#BA8DB3"/>
<path opacity="0.59" d="M682.741 633.875H680.093V650.12H682.741V633.875Z" fill="#BA8DB3"/>
<path opacity="0.59" d="M684.976 633.875H683.652V650.12H684.976V633.875Z" fill="#BA8DB3"/>
<path opacity="0.59" d="M678.899 633.875H677.075V650.12H678.899V633.875Z" fill="#BA8DB3"/>
<path opacity="0.59" d="M688.319 633.875H686.365V650.12H688.319V633.875Z" fill="#BA8DB3"/>
</g>
</g>
</g>
<path opacity="0.32" d="M700.17 584.37H517.172V659.827H700.17V584.37Z" fill="#591C57"/>
<g opacity="0.59">
<path opacity="0.59" d="M699.605 48.2673H598.871V148.092H699.605V48.2673Z" fill="#591C57"/>
<path opacity="0.59" d="M727.496 48.2673H627.652V148.092H727.496V48.2673Z" fill="#815088"/>
<path opacity="0.59" d="M685.54 48.2673H669.63V73.9554H685.54V48.2673Z" fill="#9B77A1"/>
<path opacity="0.59" d="M685.54 122.404H669.63V148.092H685.54V122.404Z" fill="#9B77A1"/>
<g opacity="0.59">
<path opacity="0.59" d="M720.421 127.621H694.526V143.491H720.421V127.621Z" fill="#E6E1E6"/>
<g opacity="0.59">
<path opacity="0.59" d="M698.477 129.844H695.72V141.268H698.477V129.844Z" fill="#BA8DB3"/>
<path opacity="0.59" d="M701.081 129.844H700.126V141.268H701.081V129.844Z" fill="#BA8DB3"/>
<path opacity="0.59" d="M707.311 129.844H705.053V141.268H707.311V129.844Z" fill="#BA8DB3"/>
<path opacity="0.59" d="M703.577 129.844H702.21V141.268H703.577V129.844Z" fill="#BA8DB3"/>
<path opacity="0.59" d="M709.915 129.844H708.982V141.268H709.915V129.844Z" fill="#BA8DB3"/>
<path opacity="0.59" d="M715.255 129.844H713.388V141.268H715.255V129.844Z" fill="#BA8DB3"/>
<path opacity="0.59" d="M716.818 129.844H715.884V141.268H716.818V129.844Z" fill="#BA8DB3"/>
<path opacity="0.59" d="M712.563 129.844H711.282V141.268H712.563V129.844Z" fill="#BA8DB3"/>
<path opacity="0.59" d="M719.183 129.844H717.816V141.268H719.183V129.844Z" fill="#BA8DB3"/>
</g>
</g>
</g>
<g opacity="0.59">
<path opacity="0.59" d="M734.876 599.602H634.142V659.827H734.876V599.602Z" fill="#591C57"/>
<path opacity="0.59" d="M762.768 599.602H662.923V659.827H762.768V599.602Z" fill="#815088"/>
<path opacity="0.59" d="M726.238 599.602H699.453V617.454H726.238V599.602Z" fill="#9B77A1"/>
<g opacity="0.59">
<path opacity="0.59" d="M693.615 639.356H667.72V655.227H693.615V639.356Z" fill="#E6E1E6"/>
<g opacity="0.59">
<path opacity="0.59" d="M671.649 641.579H668.892V653.004H671.649V641.579Z" fill="#BA8DB3"/>
<path opacity="0.59" d="M674.275 641.579H673.32V653.004H674.275V641.579Z" fill="#BA8DB3"/>
<path opacity="0.59" d="M680.483 641.579H678.226V653.004H680.483V641.579Z" fill="#BA8DB3"/>
<path opacity="0.59" d="M676.75 641.579H675.382V653.004H676.75V641.579Z" fill="#BA8DB3"/>
<path opacity="0.59" d="M683.109 641.579H682.176V653.004H683.109V641.579Z" fill="#BA8DB3"/>
<path opacity="0.59" d="M688.449 641.579H686.582V653.004H688.449V641.579Z" fill="#BA8DB3"/>
<path opacity="0.59" d="M690.012 641.579H689.078V653.004H690.012V641.579Z" fill="#BA8DB3"/>
<path opacity="0.59" d="M685.735 641.579H684.455V653.004H685.735V641.579Z" fill="#BA8DB3"/>
<path opacity="0.59" d="M692.356 641.579H690.988V653.004H692.356V641.579Z" fill="#BA8DB3"/>
</g>
</g>
</g>
<g opacity="0.59">
<path opacity="0.59" d="M732.272 146.925H631.537V246.75H732.272V146.925Z" fill="#591C57"/>
<path opacity="0.59" d="M760.163 146.925H660.319V246.75H760.163V146.925Z" fill="#815088"/>
<path opacity="0.59" d="M723.633 146.925H696.849V172.613H723.633V146.925Z" fill="#9B77A1"/>
<path opacity="0.59" d="M723.633 221.062H696.849V246.75H723.633V221.062Z" fill="#9B77A1"/>
<g opacity="0.59">
<path opacity="0.59" d="M690.988 226.279H665.094V242.149H690.988V226.279Z" fill="#E6E1E6"/>
<g opacity="0.59">
<path opacity="0.59" d="M669.044 228.502H666.288V239.926H669.044V228.502Z" fill="#BA8DB3"/>
<path opacity="0.59" d="M671.649 228.502H670.694V239.926H671.649V228.502Z" fill="#BA8DB3"/>
<path opacity="0.59" d="M677.878 228.502H675.621V239.926H677.878V228.502Z" fill="#BA8DB3"/>
<path opacity="0.59" d="M674.145 228.502H672.778V239.926H674.145V228.502Z" fill="#BA8DB3"/>
<path opacity="0.59" d="M680.483 228.502H679.55V239.926H680.483V228.502Z" fill="#BA8DB3"/>
<path opacity="0.59" d="M685.822 228.502H683.956V239.926H685.822V228.502Z" fill="#BA8DB3"/>
<path opacity="0.59" d="M687.385 228.502H686.452V239.926H687.385V228.502Z" fill="#BA8DB3"/>
<path opacity="0.59" d="M683.131 228.502H681.85V239.926H683.131V228.502Z" fill="#BA8DB3"/>
<path opacity="0.59" d="M689.729 228.502H688.362V239.926H689.729V228.502Z" fill="#BA8DB3"/>
</g>
</g>
</g>
<g opacity="0.59">
<path opacity="0.59" d="M607.662 91.4329H450.949V246.728H607.662V91.4329Z" fill="#591C57"/>
<path opacity="0.59" d="M651.072 91.4329H495.728V246.728H651.072V91.4329Z" fill="#815088"/>
<path opacity="0.59" d="M594.226 91.4329H552.552V131.385H594.226V91.4329Z" fill="#9B77A1"/>
<path opacity="0.59" d="M594.226 206.776H552.552V246.728H594.226V206.776Z" fill="#9B77A1"/>
<g opacity="0.59">
<path opacity="0.59" d="M543.479 214.898H503.172V239.596H543.479V214.898Z" fill="#E6E1E6"/>
<g opacity="0.59">
<path opacity="0.59" d="M509.293 218.354H505.018V236.118H509.293V218.354Z" fill="#BA8DB3"/>
<path opacity="0.59" d="M513.396 218.354H511.898V236.118H513.396V218.354Z" fill="#BA8DB3"/>
<path opacity="0.59" d="M523.055 218.354H519.538V236.118H523.055V218.354Z" fill="#BA8DB3"/>
<path opacity="0.59" d="M517.259 218.354H515.11V236.118H517.259V218.354Z" fill="#BA8DB3"/>
<path opacity="0.59" d="M527.113 218.354H525.659V236.118H527.113V218.354Z" fill="#BA8DB3"/>
<path opacity="0.59" d="M535.427 218.354H532.518V236.118H535.427V218.354Z" fill="#BA8DB3"/>
<path opacity="0.59" d="M537.836 218.354H536.403V236.118H537.836V218.354Z" fill="#BA8DB3"/>
<path opacity="0.59" d="M531.216 218.354H529.219V236.118H531.216V218.354Z" fill="#BA8DB3"/>
<path opacity="0.59" d="M541.526 218.354H539.377V236.118H541.526V218.354Z" fill="#BA8DB3"/>
</g>
</g>
</g>
<g opacity="0.59">
<path opacity="0.59" d="M548.753 535.855H423.644V659.827H548.753V535.855Z" fill="#591C57"/>
<path opacity="0.59" d="M583.395 535.855H459.393V659.827H583.395V535.855Z" fill="#815088"/>
<path opacity="0.59" d="M531.259 535.855H511.507V567.751H531.259V535.855Z" fill="#9B77A1"/>
<path opacity="0.59" d="M531.259 627.91H511.507V659.805H531.259V627.91Z" fill="#9B77A1"/>
<g opacity="0.59">
<path opacity="0.59" d="M574.626 634.403H542.459V654.104H574.626V634.403Z" fill="#E6E1E6"/>
<g opacity="0.59">
<path opacity="0.59" d="M547.321 637.155H543.913V651.331H547.321V637.155Z" fill="#BA8DB3"/>
<path opacity="0.59" d="M550.598 637.155H549.405V651.331H550.598V637.155Z" fill="#BA8DB3"/>
<path opacity="0.59" d="M558.304 637.155H555.504V651.331H558.304V637.155Z" fill="#BA8DB3"/>
<path opacity="0.59" d="M553.702 637.155H551.987V651.331H553.702V637.155Z" fill="#BA8DB3"/>
<path opacity="0.59" d="M561.56 637.155H560.409V651.331H561.56V637.155Z" fill="#BA8DB3"/>
<path opacity="0.59" d="M568.201 637.155H565.879V651.331H568.201V637.155Z" fill="#BA8DB3"/>
<path opacity="0.59" d="M570.133 637.155H568.983V651.331H570.133V637.155Z" fill="#BA8DB3"/>
<path opacity="0.59" d="M564.837 637.155H563.252V651.331H564.837V637.155Z" fill="#BA8DB3"/>
<path opacity="0.59" d="M573.063 637.155H571.349V651.331H573.063V637.155Z" fill="#BA8DB3"/>
</g>
</g>
</g>
<g opacity="0.59">
<path opacity="0.59" d="M398.618 560.003H297.884V659.827H398.618V560.003Z" fill="#591C57"/>
<path opacity="0.59" d="M426.509 560.003H326.665V659.827H426.509V560.003Z" fill="#815088"/>
<path opacity="0.59" d="M389.979 560.003H363.195V585.691H389.979V560.003Z" fill="#9B77A1"/>
<path opacity="0.59" d="M389.979 634.139H363.195V659.827H389.979V634.139Z" fill="#9B77A1"/>
<g opacity="0.59">
<path opacity="0.59" d="M357.334 639.356H331.44V655.227H357.334V639.356Z" fill="#E6E1E6"/>
<g opacity="0.59">
<path opacity="0.59" d="M335.39 641.58H332.634V653.004H335.39V641.58Z" fill="#BA8DB3"/>
<path opacity="0.59" d="M338.017 641.58H337.062V653.004H338.017V641.58Z" fill="#BA8DB3"/>
<path opacity="0.59" d="M344.224 641.58H341.967V653.004H344.224V641.58Z" fill="#BA8DB3"/>
<path opacity="0.59" d="M340.491 641.58H339.124V653.004H340.491V641.58Z" fill="#BA8DB3"/>
<path opacity="0.59" d="M346.829 641.58H345.896V653.004H346.829V641.58Z" fill="#BA8DB3"/>
<path opacity="0.59" d="M352.168 641.58H350.302V653.004H352.168V641.58Z" fill="#BA8DB3"/>
<path opacity="0.59" d="M353.753 641.58H352.82V653.004H353.753V641.58Z" fill="#BA8DB3"/>
<path opacity="0.59" d="M349.477 641.58H348.197V653.004H349.477V641.58Z" fill="#BA8DB3"/>
<path opacity="0.59" d="M356.097 641.58H354.73V653.004H356.097V641.58Z" fill="#BA8DB3"/>
</g>
</g>
</g>
<g opacity="0.59">
<path opacity="0.59" d="M274.008 504.51H117.295V659.805H274.008V504.51Z" fill="#591C57"/>
<path opacity="0.59" d="M317.418 504.51H162.073V659.805H317.418V504.51Z" fill="#815088"/>
<path opacity="0.59" d="M260.594 504.51H218.92V544.462H260.594V504.51Z" fill="#9B77A1"/>
<path opacity="0.59" d="M260.594 619.854H218.92V659.805H260.594V619.854Z" fill="#9B77A1"/>
<g opacity="0.59">
<path opacity="0.59" d="M209.825 627.976H169.519V652.673H209.825V627.976Z" fill="#E6E1E6"/>
<g opacity="0.59">
<path opacity="0.59" d="M175.639 631.432H171.364V649.195H175.639V631.432Z" fill="#BA8DB3"/>
<path opacity="0.59" d="M179.742 631.432H178.244V649.195H179.742V631.432Z" fill="#BA8DB3"/>
<path opacity="0.59" d="M189.401 631.432H185.884V649.195H189.401V631.432Z" fill="#BA8DB3"/>
<path opacity="0.59" d="M183.605 631.432H181.456V649.195H183.605V631.432Z" fill="#BA8DB3"/>
<path opacity="0.59" d="M193.46 631.432H192.005V649.195H193.46V631.432Z" fill="#BA8DB3"/>
<path opacity="0.59" d="M201.773 631.432H198.864V649.195H201.773V631.432Z" fill="#BA8DB3"/>
<path opacity="0.59" d="M204.182 631.432H202.749V649.195H204.182V631.432Z" fill="#BA8DB3"/>
<path opacity="0.59" d="M197.583 631.432H195.586V649.195H197.583V631.432Z" fill="#BA8DB3"/>
<path opacity="0.59" d="M207.894 631.432H205.745V649.195H207.894V631.432Z" fill="#BA8DB3"/>
</g>
</g>
</g>
<g opacity="0.59">
<path opacity="0.59" d="M222.045 46H102.709V164.249H222.045V46Z" fill="#591C57"/>
<path opacity="0.59" d="M255.081 46H136.808V164.249H255.081V46Z" fill="#815088"/>
<path opacity="0.59" d="M211.8 46H180.067V76.4206H211.8V46Z" fill="#9B77A1"/>
<path opacity="0.59" d="M211.8 133.828H180.067V164.249H211.8V133.828Z" fill="#9B77A1"/>
<g opacity="0.59">
<path opacity="0.59" d="M173.165 140.013H142.474V158.811H173.165V140.013Z" fill="#E6E1E6"/>
<g opacity="0.59">
<path opacity="0.59" d="M147.119 142.633H143.863V156.17H147.119V142.633Z" fill="#BA8DB3"/>
<path opacity="0.59" d="M150.244 142.633H149.094V156.17H150.244V142.633Z" fill="#BA8DB3"/>
<path opacity="0.59" d="M157.602 142.633H154.933V156.17H157.602V142.633Z" fill="#BA8DB3"/>
<path opacity="0.59" d="M153.196 142.633H151.568V156.17H153.196V142.633Z" fill="#BA8DB3"/>
<path opacity="0.59" d="M160.706 142.633H159.599V156.17H160.706V142.633Z" fill="#BA8DB3"/>
<path opacity="0.59" d="M167.022 142.633H164.808V156.17H167.022V142.633Z" fill="#BA8DB3"/>
<path opacity="0.59" d="M168.867 142.633H167.76V156.17H168.867V142.633Z" fill="#BA8DB3"/>
<path opacity="0.59" d="M163.832 142.633H162.312V156.17H163.832V142.633Z" fill="#BA8DB3"/>
<path opacity="0.59" d="M171.667 142.633H170.04V156.17H171.667V142.633Z" fill="#BA8DB3"/>
</g>
</g>
</g>
<path opacity="0.32" d="M255.081 75.012H145.013V164.271H255.081V75.012Z" fill="#591C57"/>
<g opacity="0.59">
<path opacity="0.59" d="M412.596 48.2673H311.862V148.092H412.596V48.2673Z" fill="#591C57"/>
<path opacity="0.59" d="M440.487 48.2673H340.643V148.092H440.487V48.2673Z" fill="#815088"/>
<path opacity="0.59" d="M398.509 48.2673H382.599V73.9554H398.509V48.2673Z" fill="#9B77A1"/>
<path opacity="0.59" d="M398.509 122.404H382.599V148.092H398.509V122.404Z" fill="#9B77A1"/>
<g opacity="0.59">
<path opacity="0.59" d="M433.412 127.621H407.517V143.491H433.412V127.621Z" fill="#E6E1E6"/>
<g opacity="0.59">
<path opacity="0.59" d="M411.467 129.844H408.711V141.268H411.467V129.844Z" fill="#BA8DB3"/>
<path opacity="0.59" d="M414.072 129.844H413.117V141.268H414.072V129.844Z" fill="#BA8DB3"/>
<path opacity="0.59" d="M420.28 129.844H418.022V141.268H420.28V129.844Z" fill="#BA8DB3"/>
<path opacity="0.59" d="M416.568 129.844H415.201V141.268H416.568V129.844Z" fill="#BA8DB3"/>
<path opacity="0.59" d="M422.906 129.844H421.973V141.268H422.906V129.844Z" fill="#BA8DB3"/>
<path opacity="0.59" d="M428.246 129.844H426.379V141.268H428.246V129.844Z" fill="#BA8DB3"/>
<path opacity="0.59" d="M429.809 129.844H428.875V141.268H429.809V129.844Z" fill="#BA8DB3"/>
<path opacity="0.59" d="M425.554 129.844H424.274V141.268H425.554V129.844Z" fill="#BA8DB3"/>
<path opacity="0.59" d="M432.153 129.844H430.785V141.268H432.153V129.844Z" fill="#BA8DB3"/>
</g>
</g>
</g>
<g opacity="0.59">
<path opacity="0.59" d="M445.262 146.925H344.528V246.75H445.262V146.925Z" fill="#591C57"/>
<path opacity="0.59" d="M473.154 146.925H373.309V246.75H473.154V146.925Z" fill="#815088"/>
<path opacity="0.59" d="M436.602 146.925H409.818V172.613H436.602V146.925Z" fill="#9B77A1"/>
<path opacity="0.59" d="M436.602 221.062H409.818V246.75H436.602V221.062Z" fill="#9B77A1"/>
<g opacity="0.59">
<path opacity="0.59" d="M403.979 226.279H378.084V242.149H403.979V226.279Z" fill="#E6E1E6"/>
<g opacity="0.59">
<path opacity="0.59" d="M382.035 228.502H379.278V239.926H382.035V228.502Z" fill="#BA8DB3"/>
<path opacity="0.59" d="M384.64 228.502H383.685V239.926H384.64V228.502Z" fill="#BA8DB3"/>
<path opacity="0.59" d="M390.847 228.502H388.59V239.926H390.847V228.502Z" fill="#BA8DB3"/>
<path opacity="0.59" d="M387.135 228.502H385.768V239.926H387.135V228.502Z" fill="#BA8DB3"/>
<path opacity="0.59" d="M393.474 228.502H392.54V239.926H393.474V228.502Z" fill="#BA8DB3"/>
<path opacity="0.59" d="M398.813 228.502H396.946V239.926H398.813V228.502Z" fill="#BA8DB3"/>
<path opacity="0.59" d="M400.376 228.502H399.443V239.926H400.376V228.502Z" fill="#BA8DB3"/>
<path opacity="0.59" d="M396.1 228.502H394.819V239.926H396.1V228.502Z" fill="#BA8DB3"/>
<path opacity="0.59" d="M402.72 228.502H401.353V239.926H402.72V228.502Z" fill="#BA8DB3"/>
</g>
</g>
</g>
<g opacity="0.59">
<path opacity="0.59" d="M320.652 91.4329H163.94V246.728H320.652V91.4329Z" fill="#591C57"/>
<path opacity="0.59" d="M364.063 91.4329H208.718V246.728H364.063V91.4329Z" fill="#815088"/>
<path opacity="0.59" d="M307.217 91.4329H265.543V131.385H307.217V91.4329Z" fill="#9B77A1"/>
<path opacity="0.59" d="M307.217 206.776H265.543V246.728H307.217V206.776Z" fill="#9B77A1"/>
<g opacity="0.59">
<path opacity="0.59" d="M256.47 214.898H216.163V239.596H256.47V214.898Z" fill="#E6E1E6"/>
<g opacity="0.59">
<path opacity="0.59" d="M222.284 218.354H218.008V236.118H222.284V218.354Z" fill="#BA8DB3"/>
<path opacity="0.59" d="M226.364 218.354H224.867V236.118H226.364V218.354Z" fill="#BA8DB3"/>
<path opacity="0.59" d="M236.023 218.354H232.507V236.118H236.023V218.354Z" fill="#BA8DB3"/>
<path opacity="0.59" d="M230.25 218.354H228.101V236.118H230.25V218.354Z" fill="#BA8DB3"/>
<path opacity="0.59" d="M240.104 218.354H238.65V236.118H240.104V218.354Z" fill="#BA8DB3"/>
<path opacity="0.59" d="M248.395 218.354H245.487V236.118H248.395V218.354Z" fill="#BA8DB3"/>
<path opacity="0.59" d="M250.826 218.354H249.394V236.118H250.826V218.354Z" fill="#BA8DB3"/>
<path opacity="0.59" d="M244.206 218.354H242.209V236.118H244.206V218.354Z" fill="#BA8DB3"/>
<path opacity="0.59" d="M254.517 218.354H252.368V236.118H254.517V218.354Z" fill="#BA8DB3"/>
</g>
</g>
</g>
<g opacity="0.59">
<path opacity="0.59" d="M643.172 332.993H520.645V454.411H643.172V332.993Z" fill="#591C57"/>
<path opacity="0.59" d="M677.097 332.993H555.656V454.411H677.097V332.993Z" fill="#815088"/>
<path opacity="0.59" d="M632.666 332.993H600.087V364.228H632.666V332.993Z" fill="#9B77A1"/>
<path opacity="0.59" d="M632.666 423.154H600.087V454.389H632.666V423.154Z" fill="#9B77A1"/>
<g opacity="0.59">
<path opacity="0.59" d="M592.989 429.515H561.473V448.82H592.989V429.515Z" fill="#E6E1E6"/>
<g opacity="0.59">
<path opacity="0.59" d="M566.248 432.223H562.906V446.112H566.248V432.223Z" fill="#BA8DB3"/>
<path opacity="0.59" d="M569.461 432.223H568.289V446.112H569.461V432.223Z" fill="#BA8DB3"/>
<path opacity="0.59" d="M576.992 432.223H574.257V446.112H576.992V432.223Z" fill="#BA8DB3"/>
<path opacity="0.59" d="M572.477 432.223H570.806V446.112H572.477V432.223Z" fill="#BA8DB3"/>
<path opacity="0.59" d="M580.183 432.223H579.054V446.112H580.183V432.223Z" fill="#BA8DB3"/>
<path opacity="0.59" d="M586.673 432.223H584.416V446.112H586.673V432.223Z" fill="#BA8DB3"/>
<path opacity="0.59" d="M588.583 432.223H587.454V446.112H588.583V432.223Z" fill="#BA8DB3"/>
<path opacity="0.59" d="M583.395 432.223H581.833V446.112H583.395V432.223Z" fill="#BA8DB3"/>
<path opacity="0.59" d="M591.448 432.223H589.777V446.112H591.448V432.223Z" fill="#BA8DB3"/>
</g>
</g>
</g>
<g opacity="0.59">
<path opacity="0.59" d="M209.109 290.113H86.5823V454.411H209.109V290.113Z" fill="#591C57"/>
<path opacity="0.59" d="M243.034 290.113H121.593V454.411H243.034V290.113Z" fill="#815088"/>
<path opacity="0.59" d="M198.603 290.113H166.024V321.348H198.603V290.113Z" fill="#9B77A1"/>
<path opacity="0.59" d="M198.603 423.154H166.024V454.389H198.603V423.154Z" fill="#9B77A1"/>
<g opacity="0.59">
<path opacity="0.59" d="M158.926 429.515H127.41V448.82H158.926V429.515Z" fill="#E6E1E6"/>
<g opacity="0.59">
<path opacity="0.59" d="M132.185 432.223H128.842V446.113H132.185V432.223Z" fill="#BA8DB3"/>
<path opacity="0.59" d="M135.397 432.223H134.225V446.113H135.397V432.223Z" fill="#BA8DB3"/>
<path opacity="0.59" d="M142.929 432.223H140.194V446.113H142.929V432.223Z" fill="#BA8DB3"/>
<path opacity="0.59" d="M138.414 432.223H136.743V446.113H138.414V432.223Z" fill="#BA8DB3"/>
<path opacity="0.59" d="M146.12 432.223H144.991V446.113H146.12V432.223Z" fill="#BA8DB3"/>
<path opacity="0.59" d="M152.609 432.223H150.352V446.113H152.609V432.223Z" fill="#BA8DB3"/>
<path opacity="0.59" d="M154.52 432.223H153.391V446.113H154.52V432.223Z" fill="#BA8DB3"/>
<path opacity="0.59" d="M149.332 432.223H147.769V446.113H149.332V432.223Z" fill="#BA8DB3"/>
<path opacity="0.59" d="M157.385 432.223H155.713V446.113H157.385V432.223Z" fill="#BA8DB3"/>
</g>
</g>
</g>
<path opacity="0.32" d="M243.034 290.113H199.58V454.411H243.034V290.113Z" fill="#591C57"/>
<g opacity="0.59">
<path opacity="0.59" d="M513.157 354.586H412.422V454.411H513.157V354.586Z" fill="#591C57"/>
<path opacity="0.59" d="M541.048 354.586H441.204V454.411H541.048V354.586Z" fill="#815088"/>
<path opacity="0.59" d="M504.518 354.586H477.734V380.274H504.518V354.586Z" fill="#9B77A1"/>
<path opacity="0.59" d="M504.518 428.723H477.734V454.411H504.518V428.723Z" fill="#9B77A1"/>
<g opacity="0.59">
<path opacity="0.59" d="M471.895 433.94H446V449.81H471.895V433.94Z" fill="#E6E1E6"/>
<g opacity="0.59">
<path opacity="0.59" d="M449.929 436.163H447.173V447.587H449.929V436.163Z" fill="#BA8DB3"/>
<path opacity="0.59" d="M452.556 436.163H451.601V447.587H452.556V436.163Z" fill="#BA8DB3"/>
<path opacity="0.59" d="M458.763 436.163H456.506V447.587H458.763V436.163Z" fill="#BA8DB3"/>
<path opacity="0.59" d="M455.03 436.163H453.662V447.587H455.03V436.163Z" fill="#BA8DB3"/>
<path opacity="0.59" d="M461.368 436.163H460.435V447.587H461.368V436.163Z" fill="#BA8DB3"/>
<path opacity="0.59" d="M466.707 436.163H464.841V447.587H466.707V436.163Z" fill="#BA8DB3"/>
<path opacity="0.59" d="M468.292 436.163H467.359V447.587H468.292V436.163Z" fill="#BA8DB3"/>
<path opacity="0.59" d="M464.016 436.163H462.735V447.587H464.016V436.163Z" fill="#BA8DB3"/>
<path opacity="0.59" d="M470.636 436.163H469.269V447.587H470.636V436.163Z" fill="#BA8DB3"/>
</g>
</g>
</g>
<g opacity="0.59">
<path opacity="0.59" d="M388.547 299.094H231.834V454.389H388.547V299.094Z" fill="#591C57"/>
<path opacity="0.59" d="M431.957 299.094H276.612V454.389H431.957V299.094Z" fill="#815088"/>
<path opacity="0.59" d="M375.133 299.094H333.459V339.046H375.133V299.094Z" fill="#9B77A1"/>
<path opacity="0.59" d="M375.133 414.437H333.459V454.389H375.133V414.437Z" fill="#9B77A1"/>
<g opacity="0.59">
<path opacity="0.59" d="M324.364 422.56H284.057V447.257H324.364V422.56Z" fill="#E6E1E6"/>
<g opacity="0.59">
<path opacity="0.59" d="M290.178 426.015H285.902V443.779H290.178V426.015Z" fill="#BA8DB3"/>
<path opacity="0.59" d="M294.28 426.015H292.783V443.779H294.28V426.015Z" fill="#BA8DB3"/>
<path opacity="0.59" d="M303.939 426.015H300.423V443.779H303.939V426.015Z" fill="#BA8DB3"/>
<path opacity="0.59" d="M298.144 426.015H295.995V443.779H298.144V426.015Z" fill="#BA8DB3"/>
<path opacity="0.59" d="M307.998 426.015H306.544V443.779H307.998V426.015Z" fill="#BA8DB3"/>
<path opacity="0.59" d="M316.311 426.015H313.403V443.779H316.311V426.015Z" fill="#BA8DB3"/>
<path opacity="0.59" d="M318.721 426.015H317.288V443.779H318.721V426.015Z" fill="#BA8DB3"/>
<path opacity="0.59" d="M312.122 426.015H310.125V443.779H312.122V426.015Z" fill="#BA8DB3"/>
<path opacity="0.59" d="M322.433 426.015H320.284V443.779H322.433V426.015Z" fill="#BA8DB3"/>
</g>
</g>
</g>
<g opacity="0.59">
<path opacity="0.59" d="M155.41 146.925H54.6755V246.75H155.41V146.925Z" fill="#591C57"/>
<path opacity="0.59" d="M183.301 146.925H83.4568V246.75H183.301V146.925Z" fill="#815088"/>
<path opacity="0.59" d="M146.771 146.925H119.987V172.613H146.771V146.925Z" fill="#9B77A1"/>
<path opacity="0.59" d="M146.771 221.062H119.987V246.75H146.771V221.062Z" fill="#9B77A1"/>
<g opacity="0.59">
<path opacity="0.59" d="M114.148 226.279H88.2537V242.149H114.148V226.279Z" fill="#E6E1E6"/>
<g opacity="0.59">
<path opacity="0.59" d="M92.1823 228.502H89.4258V239.926H92.1823V228.502Z" fill="#BA8DB3"/>
<path opacity="0.59" d="M94.8088 228.502H93.8538V239.926H94.8088V228.502Z" fill="#BA8DB3"/>
<path opacity="0.59" d="M101.016 228.502H98.759V239.926H101.016V228.502Z" fill="#BA8DB3"/>
<path opacity="0.59" d="M97.2832 228.502H95.9158V239.926H97.2832V228.502Z" fill="#BA8DB3"/>
<path opacity="0.59" d="M103.643 228.502H102.709V239.926H103.643V228.502Z" fill="#BA8DB3"/>
<path opacity="0.59" d="M108.982 228.502H107.115V239.926H108.982V228.502Z" fill="#BA8DB3"/>
<path opacity="0.59" d="M110.545 228.502H109.612V239.926H110.545V228.502Z" fill="#BA8DB3"/>
<path opacity="0.59" d="M106.269 228.502H104.988V239.926H106.269V228.502Z" fill="#BA8DB3"/>
<path opacity="0.59" d="M112.889 228.502H111.522V239.926H112.889V228.502Z" fill="#BA8DB3"/>
</g>
</g>
</g>
<path opacity="0.32" d="M183.301 146.925H155.887V246.75H183.301V146.925Z" fill="#591C57"/>
<path opacity="0.59" d="M795.521 246.728H6.75049V280.098H795.521V246.728Z" fill="#512F66"/>
<path opacity="0.59" d="M795.521 454.411H6.75049V487.781H795.521V454.411Z" fill="#512F66"/>
<path opacity="0.59" d="M795.521 659.827H6.75049V693.197H795.521V659.827Z" fill="#512F66"/>
<g opacity="0.59">
<path opacity="0.59" d="M13.5007 127.467H0V826.899H13.5007V127.467Z" fill="#4D2C69"/>
<path opacity="0.59" d="M189.835 127.467H176.334V826.899H189.835V127.467Z" fill="#4D2C69"/>
<path opacity="0.59" d="M183.084 143.711H6.75049V162.686H183.084V143.711Z" fill="#4D2C69"/>
<path opacity="0.59" d="M183.084 776.799H6.75049V795.774H183.084V776.799Z" fill="#4D2C69"/>
</g>
</g>
<path d="M666.239 309.931H441.209V641.471H666.239V309.931Z" fill="#C68B5C"/>
<path d="M740.469 309.931H517.822V641.471H740.469V309.931Z" fill="#E5BE84"/>
<path d="M667.267 309.931H615.028V378.289H667.267V309.931Z" fill="#EBD1B8"/>
<path d="M667.267 573.113H615.028V641.471H667.267V573.113Z" fill="#EBD1B8"/>
<path d="M599.491 586.993H530.564V629.217H599.491V586.993Z" fill="#F7EFE6"/>
<path d="M541.004 592.911H533.688V623.298H541.004V592.911Z" fill="#454349"/>
<path d="M547.991 592.911H545.443V623.298H547.991V592.911Z" fill="#454349"/>
<path d="M564.514 592.911H558.513V623.298H564.514V592.911Z" fill="#454349"/>
<path d="M554.608 592.911H550.95V623.298H554.608V592.911Z" fill="#454349"/>
<path d="M571.46 592.911H568.994V623.298H571.46V592.911Z" fill="#454349"/>
<path d="M585.681 592.911H580.708V623.298H585.681V592.911Z" fill="#454349"/>
<path d="M589.832 592.911H587.366V623.298H589.832V592.911Z" fill="#454349"/>
<path d="M578.529 592.911H575.118V623.298H578.529V592.911Z" fill="#454349"/>
<path d="M596.121 592.911H592.463V623.298H596.121V592.911Z" fill="#454349"/>
<path d="M779.68 444.731H597.929V624.841H779.68V444.731Z" fill="#C68B5C"/>
<path d="M830.029 444.731H649.881V624.841H830.029V444.731Z" fill="#E5BE84"/>
<path d="M754.279 444.731H725.59V491.082H754.279V444.731Z" fill="#EBD1B8"/>
<path d="M754.279 578.49H725.59V624.841H754.279V578.49Z" fill="#EBD1B8"/>
<path d="M817.287 587.91H770.555V616.546H817.287V587.91Z" fill="#F7EFE6"/>
<path d="M838.619 622.714H656.868V802.823H838.619V622.714Z" fill="#C68B5C"/>
<path d="M888.927 622.714H708.78V802.823H888.927V622.714Z" fill="#E5BE84"/>
<path d="M823.042 622.714H774.707V669.065H823.042V622.714Z" fill="#EBD1B8"/>
<path d="M823.042 756.473H774.707V802.823H823.042V756.473Z" fill="#EBD1B8"/>
<path d="M764.144 765.893H717.411V794.529H764.144V765.893Z" fill="#F7EFE6"/>
<path d="M653.21 129.822H471.459V309.931H653.21V129.822Z" fill="#C68B5C"/>
<path d="M703.518 129.822H523.37V309.931H703.518V129.822Z" fill="#E5BE84"/>
<path d="M637.633 129.822H589.298V176.172H637.633V129.822Z" fill="#EBD1B8"/>
<path d="M578.735 273H532.002V301.636H578.735V273Z" fill="#F7EFE6"/>
<path d="M613.835 522.594H331.057V802.823H613.835V522.594Z" fill="#C68B5C"/>
<path d="M692.092 522.594H411.821V802.823H692.092V522.594Z" fill="#E5BE84"/>
<path d="M589.585 522.594H514.37V594.704H589.585V522.594Z" fill="#EBD1B8"/>
<path d="M589.585 730.713H514.37V802.823H589.585V730.713Z" fill="#EBD1B8"/>
<path d="M497.97 745.385H425.261V789.944H497.97V745.385Z" fill="#F7EFE6"/>
<path d="M187.008 337.963L185.411 396.603L215.601 397.197L218.077 338.422L187.008 337.963Z" fill="#EFA77C"/>
<path d="M168.054 234.154V264.392C167.548 264.365 167.069 264.23 166.536 264.23C155.674 264.23 146.862 273.301 146.862 284.479C146.862 295.656 155.674 304.728 166.536 304.728C167.042 304.728 167.548 304.62 168.054 304.566V311.531C168.054 337.693 188.979 358.913 214.776 358.913H215.707C241.504 358.913 262.429 337.693 262.429 311.531V234.127H168.054V234.154Z" fill="#F6B896"/>
<path d="M214.483 282.103C214.483 285.721 211.581 288.637 208.04 288.637C204.473 288.637 201.598 285.694 201.598 282.103C201.598 278.485 204.499 275.569 208.04 275.569C211.581 275.569 214.483 278.485 214.483 282.103Z" fill="#454349"/>
<path d="M250.077 282.103C250.077 285.721 247.175 288.637 243.634 288.637C240.067 288.637 237.191 285.694 237.191 282.103C237.191 278.485 240.093 275.569 243.634 275.569C247.175 275.569 250.077 278.485 250.077 282.103Z" fill="#454349"/>
<path d="M205.298 314.825H242.516C242.516 314.825 241.318 333.238 224.36 333.238C207.401 333.238 205.298 314.825 205.298 314.825Z" fill="white"/>
<path d="M249.305 268.604H236.313C235.035 268.604 233.997 267.551 233.997 266.255V265.877C233.997 264.581 235.035 263.501 236.313 263.501H249.305C250.583 263.501 251.647 264.554 251.647 265.877V266.255C251.647 267.551 250.583 268.604 249.305 268.604Z" fill="#454349"/>
<path d="M214.509 268.604H201.518C200.24 268.604 199.175 267.551 199.175 266.255V265.877C199.175 264.581 200.213 263.501 201.518 263.501H214.509C215.787 263.501 216.825 264.554 216.825 265.877V266.255C216.852 267.551 215.787 268.604 214.509 268.604Z" fill="#454349"/>
<path d="M149.498 234.154C149.498 234.154 154.53 191.604 201.837 200.595C249.145 209.585 272.945 210.827 279.388 202.647C279.388 202.647 292.992 247.653 239.801 247.653C186.61 247.653 189.006 241.119 184.187 251.757C179.342 262.394 182.164 279.997 182.164 279.997H170.051C170.051 279.997 170.13 260.963 152.347 270.494C152.347 270.467 147.874 257.885 149.498 234.154Z" fill="#454349"/>
<path d="M285.804 510.941C286.603 509.7 287.401 508.512 288.2 507.351C282.556 501.411 276.353 494.823 272.173 490.153C269.032 486.67 266.716 482.539 265.305 478.03L252.047 409.292C249.864 397.926 243.288 387.829 233.571 381.727C232.985 381.349 232.48 381.052 232.054 380.863C209.904 369.875 202.663 398.547 202.237 408.645C202.104 411.668 202.689 414.638 203.994 417.365L241.93 502.923C243.927 507.135 248.16 509.808 252.766 509.754L277.897 528.679C279.707 522.47 282.449 516.26 285.804 510.941Z" fill="#EF9721"/>
<path d="M229.284 784.624V834.868H318.815V834.652C318.975 822.935 311.893 812.217 300.978 808.383C288.279 803.901 271.614 795.262 260.353 779.036L229.284 784.624Z" fill="#454349"/>
<path opacity="0.55" d="M260.353 779.036L229.284 784.624L229.497 802.146L280.985 798.636C273.531 793.831 266.209 787.486 260.353 779.036Z" fill="#4A556D"/>
<path d="M153.438 784.624V834.868H242.968V834.652C243.128 822.935 236.047 812.217 225.132 808.383C212.433 803.901 195.767 795.262 184.506 779.036L153.438 784.624Z" fill="#454349"/>
<path opacity="0.55" d="M184.506 779.036L153.438 784.624L153.651 802.146L205.138 798.636C197.684 793.831 190.363 787.486 184.506 779.036Z" fill="#4A556D"/>
<path d="M244.539 546.606L251.115 546.363C257.158 483.835 250.929 434.104 245.365 405.513C242.143 389.044 231.069 375.625 216.666 369.308C207.668 372.818 197.232 373.843 188.872 368.39C188.127 367.904 187.488 367.364 186.822 366.797C168.24 371.36 144.733 382.699 141.352 402.327C130.756 464.072 145.478 555.921 144.892 558.81C143.135 567.611 146.33 790.564 146.33 790.564H201.544L202.21 598.011C211.395 614.507 221.91 659.325 221.032 663.239L222.496 785.38L273.691 791.482L279.122 655.221C281.677 645.016 257.504 581.11 244.539 546.606Z" fill="#FAA92E"/>
<path opacity="0.5" d="M171.115 529.894C188.366 532.027 205.484 535.429 222.922 535.321C226.542 535.294 230.11 535.294 233.677 535.402C241.85 527.977 237.75 518.339 234.822 513.722C227.128 501.573 188.313 500.601 183.441 486.886C178.09 471.821 179.74 455.73 180.22 440.071C180.885 418.391 177.957 402.543 157.644 392.607C154.476 391.068 151.255 389.664 147.98 388.342C144.652 392.445 142.256 397.089 141.351 402.381C134.749 440.799 137.944 490.774 141.192 523.82C150.802 526.843 160.519 528.571 171.115 529.894Z" fill="#CBA92C"/>
<path d="M105.438 492.988L145.478 391.339C146.596 388.531 148.353 386.074 150.643 384.13C158.283 377.623 180.193 371.738 187.168 395.739C188.34 399.762 187.94 406.377 186.556 410.345L151.441 478.813C150.137 482.593 217.864 475.601 217.864 475.601L219.78 513.533C219.78 513.533 177.771 515.477 154.529 515.855C106.476 516.665 103.708 497.334 105.438 492.988Z" fill="#FAA92E"/>
<path d="M222.123 475.007C220.659 475.088 219.248 475.304 217.89 475.601L219.807 513.533C221.192 513.668 222.629 513.749 224.093 513.668C236.712 513.02 246.483 503.814 245.95 493.15C245.391 482.458 234.742 474.332 222.123 475.007Z" fill="#F6B896"/>
<path d="M260.22 447.144L211.128 537.211L273.664 551.898L331.434 459.078L260.22 447.144Z" fill="#4A556D"/>
<path d="M314.503 488.533C316.765 490.342 315.514 498.927 311.973 506.703C308.459 514.478 302.682 521.444 300.446 520.553C292.672 517.421 289.637 507.378 293.524 498.549C297.411 489.694 307.847 483.241 314.503 488.533Z" fill="#EFA77C"/>
<ellipse cx="291.847" cy="185.719" rx="12.8473" ry="11.6074" fill="white"/>
<ellipse cx="318.71" cy="136.123" rx="28.0306" ry="25.3253" fill="white"/>
<ellipse cx="389.37" cy="48.0125" rx="84.6757" ry="48.0125" fill="white"/>
<path d="M389.5 28C382.608 28 377 33.6075 377 40.5H382C382 36.365 385.365 33 389.5 33C393.635 33 397 36.365 397 40.5C397 43.1725 395.865 44.1625 393.298 46.1375C392.343 46.8725 391.265 47.7025 390.233 48.7325C386.953 52.01 386.988 55.2425 387 55.5V60.5H392V55.4775C392 55.4175 392.057 53.975 393.767 52.2675C394.567 51.4675 395.472 50.7725 396.345 50.1C398.995 48.06 402 45.75 402 40.5C402 33.6075 396.392 28 389.5 28ZM387 63H392V68H387V63Z" fill="#F7941D"/>
<path fill-rule="evenodd" clip-rule="evenodd" d="M773.12 579.05C805.988 579.05 832.877 552.161 832.877 519.293V355.432L856.024 348.257L950.425 653.159L789.631 702.944L763.572 618.767L714.944 579.07H773.12V579.05Z" fill="#FED6B7"/>
<path fill-rule="evenodd" clip-rule="evenodd" d="M543.676 438.066C535.498 427.283 535.073 412.026 543.676 400.915V438.066Z" fill="#FED6B7"/>
<path fill-rule="evenodd" clip-rule="evenodd" d="M543.676 294.015V353.117L535.363 346.327C522.4 335.738 520.066 316.641 530.502 303.525C534.051 299.088 538.661 295.906 543.676 294.015Z" fill="#FED6B7"/>
<path fill-rule="evenodd" clip-rule="evenodd" d="M497.556 186.382C507.992 173.266 527.358 170.932 540.339 181.522L543.676 184.241V262.825L502.417 229.166C489.435 218.615 487.121 199.499 497.556 186.382Z" fill="#FED6B7"/>
<path fill-rule="evenodd" clip-rule="evenodd" d="M960.205 602.12L753.445 666.14L821.844 887H1048.41L960.205 602.12Z" fill="#FAA92E"/>
<path fill-rule="evenodd" clip-rule="evenodd" d="M602.585 337.242L592.227 329.256C573.42 334.31 564.412 347.002 563.622 366.041L573.382 373.853C599.962 395.051 624.961 354.004 602.585 337.242Z" fill="#FFF3E9"/>
<path fill-rule="evenodd" clip-rule="evenodd" d="M604.418 9H774.124C806.992 9 833.881 35.889 833.881 68.7576V519.292C833.881 552.161 806.992 579.05 774.124 579.05H604.418C571.55 579.05 544.661 552.161 544.661 519.292V68.7576C544.661 35.889 571.55 9 604.418 9ZM570.103 520.932C570.103 521.395 570.489 521.761 570.932 521.761H807.609C808.072 521.761 808.439 521.376 808.439 520.932V52.9405C808.439 52.4776 808.053 52.1111 807.609 52.1111H570.952C570.489 52.1111 570.122 52.4969 570.122 52.9405V520.932H570.103Z" fill="#4A556D"/>
<path fill-rule="evenodd" clip-rule="evenodd" d="M733.115 23.1003H645.427C643.054 23.1003 641.106 25.0485 641.106 27.4211C641.106 29.7937 643.054 31.7418 645.427 31.7418H733.115C735.487 31.7418 737.436 29.7937 737.436 27.4211C737.436 25.0485 735.487 23.1003 733.115 23.1003Z" fill="#808285"/>
<path fill-rule="evenodd" clip-rule="evenodd" d="M689.271 537.328C681.208 537.328 674.669 543.867 674.669 551.93C674.669 559.993 681.208 566.532 689.271 566.532C697.353 566.532 703.873 559.993 703.873 551.93C703.873 543.867 697.353 537.328 689.271 537.328Z" fill="#808285"/>
<path fill-rule="evenodd" clip-rule="evenodd" d="M807.416 53.519H570.758C570.295 53.519 569.929 53.9048 569.929 54.3485V522.34C569.929 522.803 570.315 523.169 570.758 523.169H807.416C807.879 523.169 808.245 522.784 808.245 522.34V54.3485C808.265 53.8855 807.879 53.519 807.416 53.519Z" fill="black" fill-opacity="0.17"/>
<path fill-rule="evenodd" clip-rule="evenodd" d="M856.449 479.036L835.906 485.402L830.274 459.284L784.886 249.651C775.454 206.057 802.555 191.32 829.425 183.007L882.991 430.466C887.485 451.241 875.564 473.134 856.449 479.036Z" fill="#FED6B7"/>
<path fill-rule="evenodd" clip-rule="evenodd" d="M541.4 401.976C530.965 415.093 533.203 434.324 546.261 444.76L590.665 480.271C603.723 490.706 623.032 488.527 633.448 475.41C643.883 462.293 641.665 443.081 628.587 432.627L584.184 397.116C571.106 386.661 551.836 388.86 541.4 401.976Z" fill="#FED6B7"/>
<path fill-rule="evenodd" clip-rule="evenodd" d="M624.536 436.793L614.178 428.827C595.371 433.881 586.363 446.573 585.572 465.611L595.333 473.423C621.913 494.622 646.892 453.556 624.536 436.793Z" fill="#FFF3E9"/>
<path fill-rule="evenodd" clip-rule="evenodd" d="M527.358 307.363C516.923 320.48 519.16 339.711 532.219 350.166L570.045 380.392C583.103 390.846 602.412 388.648 612.828 375.531C623.263 362.414 621.045 343.202 607.967 332.748L570.141 302.503C557.063 292.048 537.793 294.247 527.358 307.363Z" fill="#FED6B7"/>
<path fill-rule="evenodd" clip-rule="evenodd" d="M604.109 338.534L593.751 330.568C574.944 335.622 565.936 348.314 565.145 367.352L574.906 375.164C601.505 396.344 626.485 355.296 604.109 338.534Z" fill="#FFF3E9"/>
<path fill-rule="evenodd" clip-rule="evenodd" d="M821.825 197.397C824.931 196.22 828.075 195.14 831.238 194.175L842.021 244.018C824.14 243.748 822.519 215.702 821.825 197.397Z" fill="#FFF3E9"/>
</svg>
