<svg width="222" height="70" viewBox="0 0 222 70" fill="none" xmlns="http://www.w3.org/2000/svg">
<path d="M84.068 42.465H79.178V25.115H84.068V26.745C85.308 25.415 87.068 24.685 88.888 24.765C92.358 24.765 94.408 26.885 94.408 31.325V42.455H89.518V31.435C89.698 30.215 88.848 29.085 87.628 28.915C87.448 28.885 87.268 28.885 87.088 28.905C85.288 28.905 84.068 30.395 84.068 34.285V42.465Z" fill="white"/>
<path d="M113.548 41.105C111.418 42.175 109.068 42.755 106.678 42.805C100.778 42.805 97.1379 39.375 97.1379 33.785C97.1379 28.375 100.048 24.765 105.778 24.765C111.188 24.765 113.858 28.235 113.858 33.025V35.595H102.208C102.698 37.535 104.118 38.685 106.788 38.685C108.608 38.605 110.378 38.115 111.988 37.265L113.548 41.105ZM102.318 31.605H108.948C108.808 29.735 107.528 28.905 105.788 28.905C104.118 28.835 102.648 29.975 102.318 31.605Z" fill="white"/>
<path d="M116.158 33.795C116.158 28.385 119.038 24.775 124.798 24.775C130.558 24.775 133.398 28.385 133.398 33.795C133.398 39.205 130.548 42.815 124.798 42.815C119.048 42.815 116.158 39.205 116.158 33.795ZM121.048 33.795C121.048 36.775 122.258 38.685 124.798 38.685C127.338 38.685 128.508 36.775 128.508 33.795C128.508 30.815 127.328 28.905 124.798 28.905C122.268 28.905 121.048 30.805 121.048 33.795Z" fill="white"/>
<path d="M138.598 25.115L142.168 35.415L145.808 25.115H151.048L144.248 42.455H140.118L133.318 25.115H138.598Z" fill="white"/>
<path d="M153.338 29.245H151.328V25.115H155.938C157.668 25.115 158.228 25.395 158.228 27.025V42.455H153.338V29.245ZM153.438 18.185H158.158V22.765H153.438V18.185Z" fill="white"/>
<path d="M172.658 30.215C171.228 29.415 169.618 28.955 167.978 28.895C166.838 28.895 166.068 29.245 166.068 29.965C166.068 32.145 174.908 31.115 174.908 37.045C174.908 41.135 171.788 42.805 167.698 42.805C165.078 42.915 162.508 42.105 160.418 40.515L162.668 36.775C164.128 37.905 165.888 38.575 167.728 38.685C168.808 38.685 170.018 38.545 170.018 37.405C170.018 34.805 161.168 36.435 161.168 29.985C161.168 26.245 164.498 24.785 168.138 24.785C170.328 24.765 172.498 25.285 174.448 26.275L172.658 30.215Z" fill="white"/>
<path d="M178.178 29.245H176.168V25.115H180.778C182.508 25.115 183.068 25.395 183.068 27.025V42.455H178.178V29.245ZM178.278 18.185H182.998V22.765H178.278V18.185Z" fill="white"/>
<path d="M185.808 33.795C185.808 28.385 188.688 24.775 194.448 24.775C200.208 24.775 203.048 28.385 203.048 33.795C203.048 39.205 200.198 42.815 194.448 42.815C188.698 42.815 185.808 39.205 185.808 33.795ZM190.698 33.795C190.698 36.775 191.908 38.685 194.448 38.685C196.988 38.685 198.158 36.775 198.158 33.795C198.158 30.815 196.978 28.905 194.448 28.905C191.918 28.905 190.698 30.805 190.698 33.795Z" fill="white"/>
<path d="M210.708 42.465H205.818V25.115H210.708V26.745C211.948 25.415 213.708 24.685 215.528 24.765C218.998 24.765 221.048 26.885 221.048 31.325V42.455H216.158V31.435C216.338 30.215 215.488 29.095 214.278 28.915C214.098 28.885 213.918 28.885 213.738 28.905C211.938 28.905 210.718 30.395 210.718 34.285L210.708 42.465Z" fill="white"/>
<path d="M56.2599 34.99C56.2599 33.37 56.2699 31.75 56.2499 30.13C56.2399 29.66 56.3399 29.47 56.8699 29.48C60.1099 29.51 63.3399 29.51 66.5799 29.48C67.0599 29.48 67.1799 29.63 67.1799 30.09C67.1599 33.35 67.1599 36.61 67.1799 39.87C67.1799 40.33 67.0699 40.49 66.5899 40.49C63.3499 40.47 60.1199 40.46 56.8799 40.49C56.3399 40.49 56.2499 40.3 56.2499 39.84C56.2799 38.22 56.2599 36.6 56.2599 34.99Z" fill="white"/>
<path d="M5.42 40.47C3.85 40.47 2.27 40.45 0.7 40.48C0.19 40.49 0 40.37 0 39.81C0.02 36.59 0.02 33.38 0 30.16C0 29.71 0.06 29.48 0.62 29.48C3.84 29.51 7.05 29.5 10.27 29.48C10.76 29.48 10.92 29.6 10.92 30.11C10.9 33.35 10.9 36.59 10.92 39.83C10.92 40.32 10.8 40.48 10.29 40.47C8.66 40.45 7.04 40.47 5.42 40.47Z" fill="white"/>
<path d="M33.5301 19.28C31.9301 19.28 30.3401 19.26 28.7401 19.29C28.2301 19.3 28.0901 19.13 28.1001 18.64C28.1201 15.43 28.1201 12.21 28.1001 9.00002C28.1001 8.50002 28.2401 8.36002 28.7401 8.36002C31.9801 8.38002 35.2201 8.38002 38.4501 8.36002C38.9401 8.36002 39.1001 8.49002 39.0901 8.99002C39.0701 12.2 39.0701 15.42 39.0901 18.63C39.0901 19.12 38.9701 19.3 38.4501 19.29C36.8101 19.26 35.1701 19.28 33.5301 19.28Z" fill="white"/>
<path d="M33.56 61.6C31.94 61.6 30.32 61.59 28.7 61.61C28.25 61.62 28.08 61.52 28.09 61.03C28.11 57.79 28.11 54.56 28.09 51.32C28.09 50.81 28.25 50.68 28.74 50.68C31.98 50.7 35.21 50.7 38.45 50.68C38.95 50.68 39.1 50.82 39.1 51.32C39.08 54.53 39.08 57.75 39.11 60.96C39.12 61.53 38.91 61.62 38.41 61.61C36.79 61.58 35.18 61.6 33.56 61.6Z" fill="white"/>
<path d="M12.4899 20.82C12.4899 19.42 12.5099 18.01 12.4799 16.6C12.4699 16.09 12.6399 15.96 13.1399 15.96C15.9499 15.98 18.7599 15.98 21.5699 15.96C22.0299 15.96 22.1799 16.08 22.1799 16.56C22.1599 19.39 22.1599 22.23 22.1799 25.06C22.1799 25.54 22.0399 25.67 21.5699 25.67C18.7599 25.65 15.9499 25.64 13.1399 25.67C12.5699 25.68 12.4699 25.47 12.4799 24.96C12.4999 23.59 12.4899 22.21 12.4899 20.82Z" fill="white"/>
<path d="M17.37 44.31C18.75 44.31 20.13 44.33 21.52 44.3C21.98 44.29 22.19 44.36 22.19 44.91C22.16 47.75 22.17 50.58 22.18 53.42C22.18 53.85 22.08 54 21.63 54C18.77 53.98 15.91 53.98 13.05 54C12.58 54 12.5 53.84 12.5 53.42C12.51 50.58 12.51 47.75 12.5 44.91C12.5 44.45 12.59 44.28 13.09 44.3C14.51 44.33 15.94 44.31 17.37 44.31Z" fill="white"/>
<path d="M49.8299 53.98C48.4499 53.98 47.0699 53.96 45.6799 53.99C45.2099 54 45.0099 53.93 45.0199 53.38C45.0499 50.55 45.0399 47.71 45.0199 44.87C45.0199 44.44 45.1199 44.29 45.5699 44.29C48.4299 44.31 51.2899 44.31 54.1499 44.29C54.6099 44.29 54.6999 44.44 54.6999 44.87C54.6799 47.71 54.6799 50.54 54.7099 53.38C54.7199 53.93 54.5099 54 54.0499 53.99C52.6399 53.97 51.2299 53.99 49.8299 53.98Z" fill="white"/>
<path d="M49.86 16.04C51.29 16.04 52.72 16.05 54.15 16.03C54.55 16.02 54.68 16.13 54.68 16.54C54.66 19.4 54.66 22.26 54.68 25.12C54.68 25.55 54.53 25.62 54.14 25.62C51.3 25.61 48.47 25.6 45.63 25.63C45.13 25.63 45.04 25.45 45.04 25.01C45.05 22.22 45.06 19.43 45.04 16.65C45.04 16.11 45.24 16.03 45.71 16.04C47.09 16.05 48.47 16.04 49.86 16.04Z" fill="white"/>
<path d="M48.5799 10.75C47.6299 10.75 46.6799 10.73 45.7299 10.76C45.3299 10.77 45.2099 10.63 45.2099 10.23C45.2299 8.35 45.2299 6.47 45.2099 4.6C45.1999 4.17 45.3599 4.09 45.7499 4.09C47.6499 4.11 49.5499 4.11 51.4599 4.09C51.8599 4.09 51.9899 4.21 51.9899 4.62C51.9699 6.5 51.9699 8.38 51.9899 10.26C51.9899 10.69 51.8299 10.78 51.4499 10.78C50.4799 10.73 49.5299 10.75 48.5799 10.75Z" fill="white"/>
<path d="M18.57 65.88C17.64 65.88 16.71 65.86 15.79 65.89C15.37 65.9 15.21 65.8 15.21 65.34C15.24 63.49 15.23 61.63 15.21 59.78C15.21 59.36 15.31 59.19 15.77 59.2C17.67 59.22 19.57 59.22 21.48 59.2C21.88 59.2 22.01 59.31 22.01 59.73C21.99 61.61 21.99 63.49 22.01 65.37C22.01 65.77 21.92 65.91 21.5 65.9C20.52 65.86 19.54 65.88 18.57 65.88Z" fill="white"/>
<path d="M57.3601 13.03C57.3601 12.27 57.3801 11.51 57.3501 10.75C57.3401 10.36 57.4301 10.2 57.8601 10.2C59.4501 10.22 61.0501 10.21 62.6401 10.2C63.0101 10.2 63.1401 10.34 63.1301 10.71C63.1201 12.3 63.1201 13.9 63.1301 15.49C63.1301 15.88 62.9801 15.98 62.6201 15.97C61.0301 15.96 59.4301 15.95 57.8401 15.98C57.4201 15.99 57.3701 15.78 57.3801 15.46C57.3901 14.65 57.3801 13.84 57.3801 13.04L57.3601 13.03Z" fill="white"/>
<path d="M6.96995 54C7.72995 54 8.48995 54.02 9.24995 53.99C9.65995 53.98 9.82995 54.06 9.83995 54.53C9.86995 56.09 9.67995 57.65 9.82995 59.21C9.86995 59.67 9.67995 59.77 9.25995 59.77C7.71995 59.75 6.16995 59.75 4.62995 59.77C4.19995 59.78 4.04995 59.64 4.05995 59.2C4.07995 57.66 4.07995 56.11 4.05995 54.57C4.03995 54.13 4.17995 53.98 4.60995 54C5.39995 54.02 6.17995 54 6.96995 54Z" fill="white"/>
<path d="M40.93 2.39C40.93 2.98 40.91 3.58 40.94 4.17C40.95 4.53 40.86 4.67 40.46 4.67C39.25 4.65 38.03 4.65 36.82 4.67C36.44 4.68 36.26 4.58 36.27 4.15C36.29 2.94 36.29 1.72 36.27 0.510004C36.26 0.100004 36.42 -0.0099958 36.81 4.20079e-06C38.02 0.0200042 39.24 0.0200042 40.45 4.20079e-06C40.82 -0.0099958 40.96 0.100004 40.94 0.480004C40.91 1.12 40.93 1.76 40.93 2.41V2.39Z" fill="white"/>
<path d="M26.2599 67.59C26.2599 66.97 26.2799 66.35 26.2499 65.74C26.2399 65.39 26.3499 65.3 26.6999 65.3C27.9399 65.32 29.1699 65.32 30.4099 65.3C30.8299 65.29 30.9299 65.45 30.9299 65.85C30.9099 67.04 30.9099 68.23 30.9299 69.41C30.9399 69.83 30.8299 70 30.3799 69.99C29.1699 69.96 27.9599 69.96 26.7499 69.99C26.3799 70 26.2499 69.9 26.2699 69.52C26.2799 68.87 26.2599 68.23 26.2599 67.59Z" fill="white"/>
<path d="M23.27 12.84C21.74 12.84 21.74 12.84 21.74 11.32C21.74 9.80002 21.74 9.80002 23.28 9.80002C24.77 9.80002 24.77 9.80002 24.77 11.29V11.36C24.77 12.84 24.77 12.84 23.27 12.84Z" fill="white"/>
<path d="M43.9699 57.13C45.4599 57.13 45.4599 57.13 45.4599 58.61C45.4599 60.17 45.4599 60.17 43.9099 60.17C42.4299 60.17 42.4299 60.17 42.4299 58.69C42.4299 57.13 42.4299 57.13 43.9699 57.13Z" fill="white"/>
<path d="M58.9099 46.62C58.9099 45.12 58.9099 45.12 60.4199 45.12C61.9299 45.12 61.9199 45.12 61.9199 46.63C61.9199 48.18 61.9199 48.18 60.4399 48.17C58.9099 48.17 58.9099 48.17 58.9099 46.62Z" fill="white"/>
<path d="M6.84003 21.8C8.29003 21.8 8.29003 21.8 8.29003 23.24C8.29003 24.85 8.29003 24.85 6.66003 24.85C5.28003 24.85 5.28003 24.85 5.28003 23.49V23.35C5.28003 21.8 5.28003 21.8 6.84003 21.8Z" fill="white"/>
<path d="M33.8299 23.88C27.7699 23.85 22.8299 28.75 22.7999 34.81C22.7699 40.87 27.6699 45.81 33.7299 45.84C39.7899 45.87 44.7299 40.97 44.7599 34.91C44.7599 34.89 44.7599 34.87 44.7599 34.85C44.7399 28.81 39.8599 23.92 33.8299 23.88ZM37.2099 33C35.5799 33.01 34.2599 31.69 34.2499 30.06C34.2499 30.03 34.2499 30.01 34.2499 29.98C34.2099 28.33 35.5199 26.96 37.1699 26.92C37.1999 26.92 37.2299 26.92 37.2699 26.92C38.9499 26.94 40.2999 28.31 40.2799 29.99C40.2599 31.67 38.8799 33.01 37.2099 33Z" fill="white"/>
</svg>
