<svg width="462" height="728" viewBox="0 0 462 728" fill="none" xmlns="http://www.w3.org/2000/svg">
<path fill-rule="evenodd" clip-rule="evenodd" d="M233.829 472.473C261.071 472.473 283.357 450.187 283.357 422.945V287.132L302.542 281.185L380.784 533.897L247.514 575.16L225.915 505.391L185.611 472.489H233.829V472.473Z" fill="#FED6B7"/>
<path fill-rule="evenodd" clip-rule="evenodd" d="M43.6594 355.622C36.8808 346.685 36.5291 334.039 43.6594 324.83V355.622Z" fill="#FED6B7"/>
<path fill-rule="evenodd" clip-rule="evenodd" d="M43.6594 236.229V285.214L36.7689 279.586C26.0254 270.809 24.091 254.982 32.7401 244.111C35.6818 240.433 39.5027 237.796 43.6594 236.229Z" fill="#FED6B7"/>
<path fill-rule="evenodd" clip-rule="evenodd" d="M5.43378 147.019C14.0829 136.148 30.1342 134.214 40.8936 142.991L43.6594 145.245V210.377L9.46257 182.479C-1.29689 173.734 -3.21536 157.891 5.43378 147.019Z" fill="#FED6B7"/>
<path fill-rule="evenodd" clip-rule="evenodd" d="M388.89 491.594L217.522 544.656L274.213 727.711H462L388.89 491.594Z" fill="#FAA92E"/>
<path fill-rule="evenodd" clip-rule="evenodd" d="M92.4852 272.056L83.9 265.438C68.3124 269.626 60.8463 280.146 60.1908 295.925L68.2804 302.4C90.3109 319.97 111.03 285.949 92.4852 272.056Z" fill="#FFF3E9"/>
<path fill-rule="evenodd" clip-rule="evenodd" d="M94.0041 0H234.66C261.903 0 284.189 22.2863 284.189 49.5287V422.945C284.189 450.187 261.903 472.473 234.66 472.473H94.0041C66.7617 472.473 44.4753 450.187 44.4753 422.945V49.5287C44.4753 22.2863 66.7617 0 94.0041 0ZM65.5626 424.303C65.5626 424.687 65.8824 424.991 66.2501 424.991H262.414C262.798 424.991 263.102 424.671 263.102 424.303V36.4191C263.102 36.0354 262.782 35.7317 262.414 35.7317H66.2661C65.8824 35.7317 65.5786 36.0514 65.5786 36.4191V424.303H65.5626Z" fill="#4A556D"/>
<path fill-rule="evenodd" clip-rule="evenodd" d="M200.672 11.6868H127.993C126.027 11.6868 124.412 13.3015 124.412 15.2679C124.412 17.2344 126.027 18.8491 127.993 18.8491H200.672C202.638 18.8491 204.253 17.2344 204.253 15.2679C204.253 13.3015 202.638 11.6868 200.672 11.6868Z" fill="#808285"/>
<path fill-rule="evenodd" clip-rule="evenodd" d="M164.333 437.893C157.65 437.893 152.23 443.313 152.23 449.995C152.23 456.678 157.65 462.098 164.333 462.098C171.031 462.098 176.435 456.678 176.435 449.995C176.435 443.313 171.031 437.893 164.333 437.893Z" fill="#808285"/>
<path fill-rule="evenodd" clip-rule="evenodd" d="M262.254 36.8987H66.1059C65.7222 36.8987 65.4185 37.2184 65.4185 37.5861V425.471C65.4185 425.854 65.7382 426.158 66.1059 426.158H262.254C262.638 426.158 262.942 425.838 262.942 425.471V37.5861C262.958 37.2024 262.638 36.8987 262.254 36.8987Z" fill="black" fill-opacity="0.17"/>
<path fill-rule="evenodd" clip-rule="evenodd" d="M302.894 389.579L285.868 394.855L281.199 373.208L243.581 199.458C235.763 163.327 258.226 151.112 280.496 144.222L324.893 349.323C328.618 366.541 318.738 384.687 302.894 389.579Z" fill="#FED6B7"/>
<path fill-rule="evenodd" clip-rule="evenodd" d="M41.7732 325.71C33.124 336.581 34.9786 352.52 45.802 361.17L82.6048 390.602C93.4282 399.251 109.431 397.445 118.065 386.573C126.714 375.702 124.875 359.779 114.036 351.114L77.233 321.681C66.3936 313.016 50.4223 314.838 41.7732 325.71Z" fill="#FED6B7"/>
<path fill-rule="evenodd" clip-rule="evenodd" d="M110.679 354.567L102.093 347.964C86.5058 352.153 79.0397 362.672 78.3842 378.452L86.4738 384.927C108.504 402.497 129.208 368.46 110.679 354.567Z" fill="#FFF3E9"/>
<path fill-rule="evenodd" clip-rule="evenodd" d="M30.1345 247.292C21.4854 258.163 23.3399 274.103 34.1633 282.768L65.5145 307.82C76.3379 316.485 92.3412 314.662 100.974 303.791C109.623 292.92 107.785 276.996 96.9455 268.331L65.5944 243.263C54.755 234.598 38.7836 236.421 30.1345 247.292Z" fill="#FED6B7"/>
<path fill-rule="evenodd" clip-rule="evenodd" d="M93.7482 273.127L85.163 266.525C69.5754 270.713 62.1093 281.233 61.4538 297.012L69.5434 303.487C91.5899 321.041 112.294 287.02 93.7482 273.127Z" fill="#FFF3E9"/>
<path fill-rule="evenodd" clip-rule="evenodd" d="M274.197 156.148C276.771 155.173 279.377 154.278 281.999 153.478L290.936 194.79C276.116 194.566 274.773 171.32 274.197 156.148Z" fill="#FFF3E9"/>
</svg>
